<?xml version="1.0" encoding="UTF-8" standalone="no"?>
<!DOCTYPE svg PUBLIC "-//W3C//DTD SVG 1.1//EN"
 "http://www.w3.org/Graphics/SVG/1.1/DTD/svg11.dtd">
<!-- Generated by graphviz version 2.28.0 (20111128.2152)
 -->
<!-- Title: controllers_diagram Pages: 1 -->
<svg width="1064pt" height="992pt"
 viewBox="0.00 0.00 1064.00 992.00" xmlns="http://www.w3.org/2000/svg" xmlns:xlink="http://www.w3.org/1999/xlink">
<g id="graph1" class="graph" transform="scale(1 1) rotate(0) translate(4 988)">
<title>controllers_diagram</title>
<polygon fill="white" stroke="white" points="-4,5 -4,-988 1061,-988 1061,5 -4,5"/>
<!-- _diagram_info -->
<g id="node1" class="node"><title>_diagram_info</title>
<text text-anchor="start" x="8" y="-67.3" font-family="Times,serif" font-size="13.00">Controllers diagram</text>
<text text-anchor="start" x="8" y="-52.3" font-family="Times,serif" font-size="13.00">Date: Nov 28 2011 &#45; 16:54</text>
<text text-anchor="start" x="8" y="-37.3" font-family="Times,serif" font-size="13.00">Migration version: 20111128214828</text>
<text text-anchor="start" x="8" y="-22.3" font-family="Times,serif" font-size="13.00">Generated by RailRoady 1.0.2</text>
<text text-anchor="start" x="8" y="-7.3" font-family="Times,serif" font-size="13.00">http://railroady.prestonlee.com</text>
</g>
<!-- ApplicationController -->
<g id="node2" class="node"><title>ApplicationController</title>
<polyline fill="none" stroke="black" points="81,-598.5 258,-598.5 "/>
<path fill="none" stroke="black" d="M258,-598.5C264,-598.5 270,-604.5 270,-610.5"/>
<polyline fill="none" stroke="black" points="270,-610.5 270,-746.5 "/>
<path fill="none" stroke="black" d="M270,-746.5C270,-752.5 264,-758.5 258,-758.5"/>
<polyline fill="none" stroke="black" points="258,-758.5 81,-758.5 "/>
<path fill="none" stroke="black" d="M81,-758.5C75,-758.5 69,-752.5 69,-746.5"/>
<polyline fill="none" stroke="black" points="69,-746.5 69,-610.5 "/>
<path fill="none" stroke="black" d="M69,-610.5C69,-604.5 75,-598.5 81,-598.5"/>
<text text-anchor="middle" x="169.5" y="-741.9" font-family="Times,serif" font-size="14.00">ApplicationController</text>
<polyline fill="none" stroke="black" points="69,-734.5 270,-734.5 "/>
<text text-anchor="start" x="77" y="-717.9" font-family="Times,serif" font-size="14.00">_one_time_conditions_valid_82?</text>
<text text-anchor="start" x="77" y="-701.9" font-family="Times,serif" font-size="14.00">_one_time_conditions_valid_84?</text>
<text text-anchor="start" x="77" y="-685.9" font-family="Times,serif" font-size="14.00">require_login!</text>
<text text-anchor="start" x="77" y="-669.9" font-family="Times,serif" font-size="14.00">set_preferences</text>
<polyline fill="none" stroke="black" points="69,-662.5 270,-662.5 "/>
<polyline fill="none" stroke="black" points="69,-638.5 270,-638.5 "/>
<text text-anchor="start" x="77" y="-621.9" font-family="Times,serif" font-size="14.00">_layout</text>
<text text-anchor="start" x="77" y="-605.9" font-family="Times,serif" font-size="14.00">_run_process_action_callbacks</text>
</g>
<!-- CoursesController -->
<g id="node3" class="node"><title>CoursesController</title>
<polyline fill="none" stroke="black" points="771,-759.5 948,-759.5 "/>
<path fill="none" stroke="black" d="M948,-759.5C954,-759.5 960,-765.5 960,-771.5"/>
<polyline fill="none" stroke="black" points="960,-771.5 960,-971.5 "/>
<path fill="none" stroke="black" d="M960,-971.5C960,-977.5 954,-983.5 948,-983.5"/>
<polyline fill="none" stroke="black" points="948,-983.5 771,-983.5 "/>
<path fill="none" stroke="black" d="M771,-983.5C765,-983.5 759,-977.5 759,-971.5"/>
<polyline fill="none" stroke="black" points="759,-971.5 759,-771.5 "/>
<path fill="none" stroke="black" d="M759,-771.5C759,-765.5 765,-759.5 771,-759.5"/>
<text text-anchor="middle" x="859.5" y="-966.9" font-family="Times,serif" font-size="14.00">CoursesController</text>
<polyline fill="none" stroke="black" points="759,-959.5 960,-959.5 "/>
<text text-anchor="start" x="767" y="-942.9" font-family="Times,serif" font-size="14.00">_one_time_conditions_valid_90?</text>
<text text-anchor="start" x="767" y="-926.9" font-family="Times,serif" font-size="14.00">create</text>
<text text-anchor="start" x="767" y="-910.9" font-family="Times,serif" font-size="14.00">destroy</text>
<text text-anchor="start" x="767" y="-894.9" font-family="Times,serif" font-size="14.00">edit</text>
<text text-anchor="start" x="767" y="-878.9" font-family="Times,serif" font-size="14.00">index</text>
<text text-anchor="start" x="767" y="-862.9" font-family="Times,serif" font-size="14.00">new</text>
<text text-anchor="start" x="767" y="-846.9" font-family="Times,serif" font-size="14.00">show</text>
<text text-anchor="start" x="767" y="-830.9" font-family="Times,serif" font-size="14.00">update</text>
<polyline fill="none" stroke="black" points="759,-823.5 960,-823.5 "/>
<polyline fill="none" stroke="black" points="759,-799.5 960,-799.5 "/>
<text text-anchor="start" x="767" y="-782.9" font-family="Times,serif" font-size="14.00">_layout</text>
<text text-anchor="start" x="767" y="-766.9" font-family="Times,serif" font-size="14.00">_run_process_action_callbacks</text>
</g>
<!-- Devise::ConfirmationsController -->
<g id="node4" class="node"><title>Devise::ConfirmationsController</title>
<polyline fill="none" stroke="black" points="587,-529.5 867,-529.5 "/>
<path fill="none" stroke="black" d="M867,-529.5C873,-529.5 879,-535.5 879,-541.5"/>
<polyline fill="none" stroke="black" points="879,-541.5 879,-693.5 "/>
<path fill="none" stroke="black" d="M879,-693.5C879,-699.5 873,-705.5 867,-705.5"/>
<polyline fill="none" stroke="black" points="867,-705.5 587,-705.5 "/>
<path fill="none" stroke="black" d="M587,-705.5C581,-705.5 575,-699.5 575,-693.5"/>
<polyline fill="none" stroke="black" points="575,-693.5 575,-541.5 "/>
<path fill="none" stroke="black" d="M575,-541.5C575,-535.5 581,-529.5 587,-529.5"/>
<text text-anchor="middle" x="727" y="-688.9" font-family="Times,serif" font-size="14.00">Devise::ConfirmationsController</text>
<polyline fill="none" stroke="black" points="575,-681.5 879,-681.5 "/>
<text text-anchor="start" x="583" y="-664.9" font-family="Times,serif" font-size="14.00">_one_time_conditions_valid_92?</text>
<text text-anchor="start" x="583" y="-648.9" font-family="Times,serif" font-size="14.00">create</text>
<text text-anchor="start" x="583" y="-632.9" font-family="Times,serif" font-size="14.00">new</text>
<text text-anchor="start" x="583" y="-616.9" font-family="Times,serif" font-size="14.00">show</text>
<polyline fill="none" stroke="black" points="575,-609.5 879,-609.5 "/>
<text text-anchor="start" x="583" y="-592.9" font-family="Times,serif" font-size="14.00">after_confirmation_path_for</text>
<text text-anchor="start" x="583" y="-576.9" font-family="Times,serif" font-size="14.00">after_resending_confirmation_instructions_path_for</text>
<polyline fill="none" stroke="black" points="575,-569.5 879,-569.5 "/>
<text text-anchor="start" x="583" y="-552.9" font-family="Times,serif" font-size="14.00">_layout</text>
<text text-anchor="start" x="583" y="-536.9" font-family="Times,serif" font-size="14.00">_run_process_action_callbacks</text>
</g>
<!-- Devise::OmniauthCallbacksController -->
<g id="node5" class="node"><title>Devise::OmniauthCallbacksController</title>
<polyline fill="none" stroke="black" points="840,-46.5 1044,-46.5 "/>
<path fill="none" stroke="black" d="M1044,-46.5C1050,-46.5 1056,-52.5 1056,-58.5"/>
<polyline fill="none" stroke="black" points="1056,-58.5 1056,-194.5 "/>
<path fill="none" stroke="black" d="M1056,-194.5C1056,-200.5 1050,-206.5 1044,-206.5"/>
<polyline fill="none" stroke="black" points="1044,-206.5 840,-206.5 "/>
<path fill="none" stroke="black" d="M840,-206.5C834,-206.5 828,-200.5 828,-194.5"/>
<polyline fill="none" stroke="black" points="828,-194.5 828,-58.5 "/>
<path fill="none" stroke="black" d="M828,-58.5C828,-52.5 834,-46.5 840,-46.5"/>
<text text-anchor="middle" x="942" y="-189.9" font-family="Times,serif" font-size="14.00">Devise::OmniauthCallbacksController</text>
<polyline fill="none" stroke="black" points="828,-182.5 1056,-182.5 "/>
<text text-anchor="start" x="836" y="-165.9" font-family="Times,serif" font-size="14.00">_one_time_conditions_valid_94?</text>
<text text-anchor="start" x="836" y="-149.9" font-family="Times,serif" font-size="14.00">failure</text>
<polyline fill="none" stroke="black" points="828,-142.5 1056,-142.5 "/>
<text text-anchor="start" x="836" y="-125.9" font-family="Times,serif" font-size="14.00">after_omniauth_failure_path_for</text>
<text text-anchor="start" x="836" y="-109.9" font-family="Times,serif" font-size="14.00">failed_strategy</text>
<text text-anchor="start" x="836" y="-93.9" font-family="Times,serif" font-size="14.00">failure_message</text>
<polyline fill="none" stroke="black" points="828,-86.5 1056,-86.5 "/>
<text text-anchor="start" x="836" y="-69.9" font-family="Times,serif" font-size="14.00">_layout</text>
<text text-anchor="start" x="836" y="-53.9" font-family="Times,serif" font-size="14.00">_run_process_action_callbacks</text>
</g>
<!-- Devise::PasswordsController -->
<g id="node6" class="node"><title>Devise::PasswordsController</title>
<polyline fill="none" stroke="black" points="587,-299.5 872,-299.5 "/>
<path fill="none" stroke="black" d="M872,-299.5C878,-299.5 884,-305.5 884,-311.5"/>
<polyline fill="none" stroke="black" points="884,-311.5 884,-479.5 "/>
<path fill="none" stroke="black" d="M884,-479.5C884,-485.5 878,-491.5 872,-491.5"/>
<polyline fill="none" stroke="black" points="872,-491.5 587,-491.5 "/>
<path fill="none" stroke="black" d="M587,-491.5C581,-491.5 575,-485.5 575,-479.5"/>
<polyline fill="none" stroke="black" points="575,-479.5 575,-311.5 "/>
<path fill="none" stroke="black" d="M575,-311.5C575,-305.5 581,-299.5 587,-299.5"/>
<text text-anchor="middle" x="729.5" y="-474.9" font-family="Times,serif" font-size="14.00">Devise::PasswordsController</text>
<polyline fill="none" stroke="black" points="575,-467.5 884,-467.5 "/>
<text text-anchor="start" x="583" y="-450.9" font-family="Times,serif" font-size="14.00">_one_time_conditions_valid_96?</text>
<text text-anchor="start" x="583" y="-434.9" font-family="Times,serif" font-size="14.00">_one_time_conditions_valid_98?</text>
<text text-anchor="start" x="583" y="-418.9" font-family="Times,serif" font-size="14.00">create</text>
<text text-anchor="start" x="583" y="-402.9" font-family="Times,serif" font-size="14.00">edit</text>
<text text-anchor="start" x="583" y="-386.9" font-family="Times,serif" font-size="14.00">new</text>
<text text-anchor="start" x="583" y="-370.9" font-family="Times,serif" font-size="14.00">update</text>
<polyline fill="none" stroke="black" points="575,-363.5 884,-363.5 "/>
<text text-anchor="start" x="583" y="-346.9" font-family="Times,serif" font-size="14.00">after_sending_reset_password_instructions_path_for</text>
<polyline fill="none" stroke="black" points="575,-339.5 884,-339.5 "/>
<text text-anchor="start" x="583" y="-322.9" font-family="Times,serif" font-size="14.00">_layout</text>
<text text-anchor="start" x="583" y="-306.9" font-family="Times,serif" font-size="14.00">_run_process_action_callbacks</text>
</g>
<!-- Devise::RegistrationsController -->
<g id="node7" class="node"><title>Devise::RegistrationsController</title>
<polyline fill="none" stroke="black" points="334,-253.5 517,-253.5 "/>
<path fill="none" stroke="black" d="M517,-253.5C523,-253.5 529,-259.5 529,-265.5"/>
<polyline fill="none" stroke="black" points="529,-265.5 529,-577.5 "/>
<path fill="none" stroke="black" d="M529,-577.5C529,-583.5 523,-589.5 517,-589.5"/>
<polyline fill="none" stroke="black" points="517,-589.5 334,-589.5 "/>
<path fill="none" stroke="black" d="M334,-589.5C328,-589.5 322,-583.5 322,-577.5"/>
<polyline fill="none" stroke="black" points="322,-577.5 322,-265.5 "/>
<path fill="none" stroke="black" d="M322,-265.5C322,-259.5 328,-253.5 334,-253.5"/>
<text text-anchor="middle" x="425.5" y="-572.9" font-family="Times,serif" font-size="14.00">Devise::RegistrationsController</text>
<polyline fill="none" stroke="black" points="322,-565.5 529,-565.5 "/>
<text text-anchor="start" x="330" y="-548.9" font-family="Times,serif" font-size="14.00">_one_time_conditions_valid_100?</text>
<text text-anchor="start" x="330" y="-532.9" font-family="Times,serif" font-size="14.00">_one_time_conditions_valid_104?</text>
<text text-anchor="start" x="330" y="-516.9" font-family="Times,serif" font-size="14.00">_one_time_conditions_valid_108?</text>
<text text-anchor="start" x="330" y="-500.9" font-family="Times,serif" font-size="14.00">cancel</text>
<text text-anchor="start" x="330" y="-484.9" font-family="Times,serif" font-size="14.00">create</text>
<text text-anchor="start" x="330" y="-468.9" font-family="Times,serif" font-size="14.00">destroy</text>
<text text-anchor="start" x="330" y="-452.9" font-family="Times,serif" font-size="14.00">edit</text>
<text text-anchor="start" x="330" y="-436.9" font-family="Times,serif" font-size="14.00">new</text>
<text text-anchor="start" x="330" y="-420.9" font-family="Times,serif" font-size="14.00">update</text>
<polyline fill="none" stroke="black" points="322,-413.5 529,-413.5 "/>
<text text-anchor="start" x="330" y="-396.9" font-family="Times,serif" font-size="14.00">after_inactive_sign_up_path_for</text>
<text text-anchor="start" x="330" y="-380.9" font-family="Times,serif" font-size="14.00">after_sign_up_path_for</text>
<text text-anchor="start" x="330" y="-364.9" font-family="Times,serif" font-size="14.00">after_update_path_for</text>
<text text-anchor="start" x="330" y="-348.9" font-family="Times,serif" font-size="14.00">authenticate_scope!</text>
<text text-anchor="start" x="330" y="-332.9" font-family="Times,serif" font-size="14.00">build_resource</text>
<text text-anchor="start" x="330" y="-316.9" font-family="Times,serif" font-size="14.00">inactive_reason</text>
<text text-anchor="start" x="330" y="-300.9" font-family="Times,serif" font-size="14.00">redirect_location</text>
<polyline fill="none" stroke="black" points="322,-293.5 529,-293.5 "/>
<text text-anchor="start" x="330" y="-276.9" font-family="Times,serif" font-size="14.00">_layout</text>
<text text-anchor="start" x="330" y="-260.9" font-family="Times,serif" font-size="14.00">_run_process_action_callbacks</text>
</g>
<!-- Devise::SessionsController -->
<g id="node8" class="node"><title>Devise::SessionsController</title>
<polyline fill="none" stroke="black" points="587,-69.5 770,-69.5 "/>
<path fill="none" stroke="black" d="M770,-69.5C776,-69.5 782,-75.5 782,-81.5"/>
<polyline fill="none" stroke="black" points="782,-81.5 782,-249.5 "/>
<path fill="none" stroke="black" d="M782,-249.5C782,-255.5 776,-261.5 770,-261.5"/>
<polyline fill="none" stroke="black" points="770,-261.5 587,-261.5 "/>
<path fill="none" stroke="black" d="M587,-261.5C581,-261.5 575,-255.5 575,-249.5"/>
<polyline fill="none" stroke="black" points="575,-249.5 575,-81.5 "/>
<path fill="none" stroke="black" d="M575,-81.5C575,-75.5 581,-69.5 587,-69.5"/>
<text text-anchor="middle" x="678.5" y="-244.9" font-family="Times,serif" font-size="14.00">Devise::SessionsController</text>
<polyline fill="none" stroke="black" points="575,-237.5 782,-237.5 "/>
<text text-anchor="start" x="583" y="-220.9" font-family="Times,serif" font-size="14.00">_one_time_conditions_valid_110?</text>
<text text-anchor="start" x="583" y="-204.9" font-family="Times,serif" font-size="14.00">_one_time_conditions_valid_114?</text>
<text text-anchor="start" x="583" y="-188.9" font-family="Times,serif" font-size="14.00">_one_time_conditions_valid_118?</text>
<text text-anchor="start" x="583" y="-172.9" font-family="Times,serif" font-size="14.00">create</text>
<text text-anchor="start" x="583" y="-156.9" font-family="Times,serif" font-size="14.00">destroy</text>
<text text-anchor="start" x="583" y="-140.9" font-family="Times,serif" font-size="14.00">new</text>
<polyline fill="none" stroke="black" points="575,-133.5 782,-133.5 "/>
<text text-anchor="start" x="583" y="-116.9" font-family="Times,serif" font-size="14.00">stub_options</text>
<polyline fill="none" stroke="black" points="575,-109.5 782,-109.5 "/>
<text text-anchor="start" x="583" y="-92.9" font-family="Times,serif" font-size="14.00">_layout</text>
<text text-anchor="start" x="583" y="-76.9" font-family="Times,serif" font-size="14.00">_run_process_action_callbacks</text>
</g>
<!-- Devise::UnlocksController -->
<g id="node9" class="node"><title>Devise::UnlocksController</title>
<polyline fill="none" stroke="black" points="81,-805.5 264,-805.5 "/>
<path fill="none" stroke="black" d="M264,-805.5C270,-805.5 276,-811.5 276,-817.5"/>
<polyline fill="none" stroke="black" points="276,-817.5 276,-969.5 "/>
<path fill="none" stroke="black" d="M276,-969.5C276,-975.5 270,-981.5 264,-981.5"/>
<polyline fill="none" stroke="black" points="264,-981.5 81,-981.5 "/>
<path fill="none" stroke="black" d="M81,-981.5C75,-981.5 69,-975.5 69,-969.5"/>
<polyline fill="none" stroke="black" points="69,-969.5 69,-817.5 "/>
<path fill="none" stroke="black" d="M69,-817.5C69,-811.5 75,-805.5 81,-805.5"/>
<text text-anchor="middle" x="172.5" y="-964.9" font-family="Times,serif" font-size="14.00">Devise::UnlocksController</text>
<polyline fill="none" stroke="black" points="69,-957.5 276,-957.5 "/>
<text text-anchor="start" x="77" y="-940.9" font-family="Times,serif" font-size="14.00">_one_time_conditions_valid_120?</text>
<text text-anchor="start" x="77" y="-924.9" font-family="Times,serif" font-size="14.00">_one_time_conditions_valid_122?</text>
<text text-anchor="start" x="77" y="-908.9" font-family="Times,serif" font-size="14.00">create</text>
<text text-anchor="start" x="77" y="-892.9" font-family="Times,serif" font-size="14.00">new</text>
<text text-anchor="start" x="77" y="-876.9" font-family="Times,serif" font-size="14.00">show</text>
<polyline fill="none" stroke="black" points="69,-869.5 276,-869.5 "/>
<polyline fill="none" stroke="black" points="69,-845.5 276,-845.5 "/>
<text text-anchor="start" x="77" y="-828.9" font-family="Times,serif" font-size="14.00">_layout</text>
<text text-anchor="start" x="77" y="-812.9" font-family="Times,serif" font-size="14.00">_run_process_action_callbacks</text>
</g>
<!-- FacebookController -->
<g id="node10" class="node"><title>FacebookController</title>
<polyline fill="none" stroke="black" points="81,-414.5 264,-414.5 "/>
<path fill="none" stroke="black" d="M264,-414.5C270,-414.5 276,-420.5 276,-426.5"/>
<polyline fill="none" stroke="black" points="276,-426.5 276,-546.5 "/>
<path fill="none" stroke="black" d="M276,-546.5C276,-552.5 270,-558.5 264,-558.5"/>
<polyline fill="none" stroke="black" points="264,-558.5 81,-558.5 "/>
<path fill="none" stroke="black" d="M81,-558.5C75,-558.5 69,-552.5 69,-546.5"/>
<polyline fill="none" stroke="black" points="69,-546.5 69,-426.5 "/>
<path fill="none" stroke="black" d="M69,-426.5C69,-420.5 75,-414.5 81,-414.5"/>
<text text-anchor="middle" x="172.5" y="-541.9" font-family="Times,serif" font-size="14.00">FacebookController</text>
<polyline fill="none" stroke="black" points="69,-534.5 276,-534.5 "/>
<text text-anchor="start" x="77" y="-517.9" font-family="Times,serif" font-size="14.00">_one_time_conditions_valid_124?</text>
<text text-anchor="start" x="77" y="-501.9" font-family="Times,serif" font-size="14.00">friends</text>
<text text-anchor="start" x="77" y="-485.9" font-family="Times,serif" font-size="14.00">invite</text>
<polyline fill="none" stroke="black" points="69,-478.5 276,-478.5 "/>
<polyline fill="none" stroke="black" points="69,-454.5 276,-454.5 "/>
<text text-anchor="start" x="77" y="-437.9" font-family="Times,serif" font-size="14.00">_layout</text>
<text text-anchor="start" x="77" y="-421.9" font-family="Times,serif" font-size="14.00">_run_process_action_callbacks</text>
</g>
<!-- HomepageController -->
<g id="node11" class="node"><title>HomepageController</title>
<polyline fill="none" stroke="black" points="587,-759.5 697,-759.5 "/>
<path fill="none" stroke="black" d="M697,-759.5C703,-759.5 709,-765.5 709,-771.5"/>
<polyline fill="none" stroke="black" points="709,-771.5 709,-843.5 "/>
<path fill="none" stroke="black" d="M709,-843.5C709,-849.5 703,-855.5 697,-855.5"/>
<polyline fill="none" stroke="black" points="697,-855.5 587,-855.5 "/>
<path fill="none" stroke="black" d="M587,-855.5C581,-855.5 575,-849.5 575,-843.5"/>
<polyline fill="none" stroke="black" points="575,-843.5 575,-771.5 "/>
<path fill="none" stroke="black" d="M575,-771.5C575,-765.5 581,-759.5 587,-759.5"/>
<text text-anchor="middle" x="642" y="-838.9" font-family="Times,serif" font-size="14.00">HomepageController</text>
<polyline fill="none" stroke="black" points="575,-831.5 709,-831.5 "/>
<text text-anchor="start" x="583" y="-814.9" font-family="Times,serif" font-size="14.00">index</text>
<polyline fill="none" stroke="black" points="575,-807.5 709,-807.5 "/>
<polyline fill="none" stroke="black" points="575,-783.5 709,-783.5 "/>
<text text-anchor="start" x="583" y="-766.9" font-family="Times,serif" font-size="14.00">_layout</text>
</g>
<!-- PreferencesController -->
<g id="node12" class="node"><title>PreferencesController</title>
<polyline fill="none" stroke="black" points="104,-253.5 271,-253.5 "/>
<path fill="none" stroke="black" d="M271,-253.5C277,-253.5 283,-259.5 283,-265.5"/>
<polyline fill="none" stroke="black" points="283,-265.5 283,-369.5 "/>
<path fill="none" stroke="black" d="M283,-369.5C283,-375.5 277,-381.5 271,-381.5"/>
<polyline fill="none" stroke="black" points="271,-381.5 104,-381.5 "/>
<path fill="none" stroke="black" d="M104,-381.5C98,-381.5 92,-375.5 92,-369.5"/>
<polyline fill="none" stroke="black" points="92,-369.5 92,-265.5 "/>
<path fill="none" stroke="black" d="M92,-265.5C92,-259.5 98,-253.5 104,-253.5"/>
<text text-anchor="middle" x="187.5" y="-364.9" font-family="Times,serif" font-size="14.00">PreferencesController</text>
<polyline fill="none" stroke="black" points="92,-357.5 283,-357.5 "/>
<text text-anchor="start" x="100" y="-340.9" font-family="Times,serif" font-size="14.00">index</text>
<text text-anchor="start" x="100" y="-324.9" font-family="Times,serif" font-size="14.00">update</text>
<polyline fill="none" stroke="black" points="92,-317.5 283,-317.5 "/>
<polyline fill="none" stroke="black" points="92,-293.5 283,-293.5 "/>
<text text-anchor="start" x="100" y="-276.9" font-family="Times,serif" font-size="14.00">_layout</text>
<text text-anchor="start" x="100" y="-260.9" font-family="Times,serif" font-size="14.00">_run_process_action_callbacks</text>
</g>
<!-- UserCoursesController -->
<g id="node13" class="node"><title>UserCoursesController</title>
<polyline fill="none" stroke="black" points="334,-644.5 517,-644.5 "/>
<path fill="none" stroke="black" d="M517,-644.5C523,-644.5 529,-650.5 529,-656.5"/>
<polyline fill="none" stroke="black" points="529,-656.5 529,-872.5 "/>
<path fill="none" stroke="black" d="M529,-872.5C529,-878.5 523,-884.5 517,-884.5"/>
<polyline fill="none" stroke="black" points="517,-884.5 334,-884.5 "/>
<path fill="none" stroke="black" d="M334,-884.5C328,-884.5 322,-878.5 322,-872.5"/>
<polyline fill="none" stroke="black" points="322,-872.5 322,-656.5 "/>
<path fill="none" stroke="black" d="M322,-656.5C322,-650.5 328,-644.5 334,-644.5"/>
<text text-anchor="middle" x="425.5" y="-867.9" font-family="Times,serif" font-size="14.00">UserCoursesController</text>
<polyline fill="none" stroke="black" points="322,-860.5 529,-860.5 "/>
<text text-anchor="start" x="330" y="-843.9" font-family="Times,serif" font-size="14.00">_one_time_conditions_valid_126?</text>
<text text-anchor="start" x="330" y="-827.9" font-family="Times,serif" font-size="14.00">create</text>
<text text-anchor="start" x="330" y="-811.9" font-family="Times,serif" font-size="14.00">destroy</text>
<text text-anchor="start" x="330" y="-795.9" font-family="Times,serif" font-size="14.00">edit</text>
<text text-anchor="start" x="330" y="-779.9" font-family="Times,serif" font-size="14.00">generate_course_list</text>
<text text-anchor="start" x="330" y="-763.9" font-family="Times,serif" font-size="14.00">index</text>
<text text-anchor="start" x="330" y="-747.9" font-family="Times,serif" font-size="14.00">new</text>
<text text-anchor="start" x="330" y="-731.9" font-family="Times,serif" font-size="14.00">show</text>
<text text-anchor="start" x="330" y="-715.9" font-family="Times,serif" font-size="14.00">update</text>
<polyline fill="none" stroke="black" points="322,-708.5 529,-708.5 "/>
<polyline fill="none" stroke="black" points="322,-684.5 529,-684.5 "/>
<text text-anchor="start" x="330" y="-667.9" font-family="Times,serif" font-size="14.00">_layout</text>
<text text-anchor="start" x="330" y="-651.9" font-family="Times,serif" font-size="14.00">_run_process_action_callbacks</text>
</g>
<!-- Users::OmniauthCallbacksController -->
<g id="node14" class="node"><title>Users::OmniauthCallbacksController</title>
<polyline fill="none" stroke="black" points="127,-115.5 325,-115.5 "/>
<path fill="none" stroke="black" d="M325,-115.5C331,-115.5 337,-121.5 337,-127.5"/>
<polyline fill="none" stroke="black" points="337,-127.5 337,-199.5 "/>
<path fill="none" stroke="black" d="M337,-199.5C337,-205.5 331,-211.5 325,-211.5"/>
<polyline fill="none" stroke="black" points="325,-211.5 127,-211.5 "/>
<path fill="none" stroke="black" d="M127,-211.5C121,-211.5 115,-205.5 115,-199.5"/>
<polyline fill="none" stroke="black" points="115,-199.5 115,-127.5 "/>
<path fill="none" stroke="black" d="M115,-127.5C115,-121.5 121,-115.5 127,-115.5"/>
<text text-anchor="middle" x="226" y="-194.9" font-family="Times,serif" font-size="14.00">Users::OmniauthCallbacksController</text>
<polyline fill="none" stroke="black" points="115,-187.5 337,-187.5 "/>
<text text-anchor="start" x="123" y="-170.9" font-family="Times,serif" font-size="14.00">facebook</text>
<polyline fill="none" stroke="black" points="115,-163.5 337,-163.5 "/>
<polyline fill="none" stroke="black" points="115,-139.5 337,-139.5 "/>
<text text-anchor="start" x="123" y="-122.9" font-family="Times,serif" font-size="14.00">_layout</text>
</g>
</g>
</svg>
