<?xml version="1.0" encoding="UTF-8" standalone="no"?>
<!DOCTYPE svg PUBLIC "-//W3C//DTD SVG 1.1//EN"
 "http://www.w3.org/Graphics/SVG/1.1/DTD/svg11.dtd">
<!-- Generated by graphviz version 2.28.0 (20111004.1710)
 -->
<!-- Title: controllers_diagram Pages: 1 -->
<svg width="962pt" height="911pt"
 viewBox="0.00 0.00 962.00 911.00" xmlns="http://www.w3.org/2000/svg" xmlns:xlink="http://www.w3.org/1999/xlink">
<g id="graph1" class="graph" transform="scale(1 1) rotate(0) translate(4 907)">
<title>controllers_diagram</title>
<polygon fill="white" stroke="white" points="-4,5 -4,-907 959,-907 959,5 -4,5"/>
<!-- _diagram_info -->
<g id="node1" class="node"><title>_diagram_info</title>
<text text-anchor="start" x="756" y="-67.3" font-family="Times,serif" font-size="13.00">Controllers diagram</text>
<text text-anchor="start" x="756" y="-52.3" font-family="Times,serif" font-size="13.00">Date: Oct 04 2011 &#45; 13:13</text>
<text text-anchor="start" x="756" y="-37.3" font-family="Times,serif" font-size="13.00">Migration version: 20111004135455</text>
<text text-anchor="start" x="756" y="-22.3" font-family="Times,serif" font-size="13.00">Generated by RailRoady 1.0.2</text>
<text text-anchor="start" x="756" y="-7.3" font-family="Times,serif" font-size="13.00">http://railroady.prestonlee.com</text>
</g>
<!-- ApplicationController -->
<g id="node2" class="node"><title>ApplicationController</title>
<polyline fill="none" stroke="black" points="12,-748.5 189,-748.5 "/>
<path fill="none" stroke="black" d="M189,-748.5C195,-748.5 201,-754.5 201,-760.5"/>
<polyline fill="none" stroke="black" points="201,-760.5 201,-880.5 "/>
<path fill="none" stroke="black" d="M201,-880.5C201,-886.5 195,-892.5 189,-892.5"/>
<polyline fill="none" stroke="black" points="189,-892.5 12,-892.5 "/>
<path fill="none" stroke="black" d="M12,-892.5C6,-892.5 5.68434e-14,-886.5 5.68434e-14,-880.5"/>
<polyline fill="none" stroke="black" points="5.68434e-14,-880.5 5.68434e-14,-760.5 "/>
<path fill="none" stroke="black" d="M5.68434e-14,-760.5C5.68434e-14,-754.5 6,-748.5 12,-748.5"/>
<text text-anchor="middle" x="100.5" y="-875.9" font-family="Times,serif" font-size="14.00">ApplicationController</text>
<polyline fill="none" stroke="black" points="5.68434e-14,-868.5 201,-868.5 "/>
<text text-anchor="start" x="8" y="-851.9" font-family="Times,serif" font-size="14.00">_one_time_conditions_valid_70?</text>
<text text-anchor="start" x="8" y="-835.9" font-family="Times,serif" font-size="14.00">_one_time_conditions_valid_72?</text>
<text text-anchor="start" x="8" y="-819.9" font-family="Times,serif" font-size="14.00">set_preferences</text>
<polyline fill="none" stroke="black" points="5.68434e-14,-812.5 201,-812.5 "/>
<polyline fill="none" stroke="black" points="5.68434e-14,-788.5 201,-788.5 "/>
<text text-anchor="start" x="8" y="-771.9" font-family="Times,serif" font-size="14.00">_layout</text>
<text text-anchor="start" x="8" y="-755.9" font-family="Times,serif" font-size="14.00">_run_process_action_callbacks</text>
</g>
<!-- CoursesController -->
<g id="node3" class="node"><title>CoursesController</title>
<polyline fill="none" stroke="black" points="100,-396.5 194,-396.5 "/>
<path fill="none" stroke="black" d="M194,-396.5C200,-396.5 206,-402.5 206,-408.5"/>
<polyline fill="none" stroke="black" points="206,-408.5 206,-576.5 "/>
<path fill="none" stroke="black" d="M206,-576.5C206,-582.5 200,-588.5 194,-588.5"/>
<polyline fill="none" stroke="black" points="194,-588.5 100,-588.5 "/>
<path fill="none" stroke="black" d="M100,-588.5C94,-588.5 88,-582.5 88,-576.5"/>
<polyline fill="none" stroke="black" points="88,-576.5 88,-408.5 "/>
<path fill="none" stroke="black" d="M88,-408.5C88,-402.5 94,-396.5 100,-396.5"/>
<text text-anchor="middle" x="147" y="-571.9" font-family="Times,serif" font-size="14.00">CoursesController</text>
<polyline fill="none" stroke="black" points="88,-564.5 206,-564.5 "/>
<text text-anchor="start" x="96" y="-547.9" font-family="Times,serif" font-size="14.00">create</text>
<text text-anchor="start" x="96" y="-531.9" font-family="Times,serif" font-size="14.00">destroy</text>
<text text-anchor="start" x="96" y="-515.9" font-family="Times,serif" font-size="14.00">edit</text>
<text text-anchor="start" x="96" y="-499.9" font-family="Times,serif" font-size="14.00">index</text>
<text text-anchor="start" x="96" y="-483.9" font-family="Times,serif" font-size="14.00">new</text>
<text text-anchor="start" x="96" y="-467.9" font-family="Times,serif" font-size="14.00">show</text>
<text text-anchor="start" x="96" y="-451.9" font-family="Times,serif" font-size="14.00">update</text>
<polyline fill="none" stroke="black" points="88,-444.5 206,-444.5 "/>
<polyline fill="none" stroke="black" points="88,-420.5 206,-420.5 "/>
<text text-anchor="start" x="96" y="-403.9" font-family="Times,serif" font-size="14.00">_layout</text>
</g>
<!-- Devise::ConfirmationsController -->
<g id="node4" class="node"><title>Devise::ConfirmationsController</title>
<polyline fill="none" stroke="black" points="496,-506.5 776,-506.5 "/>
<path fill="none" stroke="black" d="M776,-506.5C782,-506.5 788,-512.5 788,-518.5"/>
<polyline fill="none" stroke="black" points="788,-518.5 788,-670.5 "/>
<path fill="none" stroke="black" d="M788,-670.5C788,-676.5 782,-682.5 776,-682.5"/>
<polyline fill="none" stroke="black" points="776,-682.5 496,-682.5 "/>
<path fill="none" stroke="black" d="M496,-682.5C490,-682.5 484,-676.5 484,-670.5"/>
<polyline fill="none" stroke="black" points="484,-670.5 484,-518.5 "/>
<path fill="none" stroke="black" d="M484,-518.5C484,-512.5 490,-506.5 496,-506.5"/>
<text text-anchor="middle" x="636" y="-665.9" font-family="Times,serif" font-size="14.00">Devise::ConfirmationsController</text>
<polyline fill="none" stroke="black" points="484,-658.5 788,-658.5 "/>
<text text-anchor="start" x="492" y="-641.9" font-family="Times,serif" font-size="14.00">_one_time_conditions_valid_78?</text>
<text text-anchor="start" x="492" y="-625.9" font-family="Times,serif" font-size="14.00">create</text>
<text text-anchor="start" x="492" y="-609.9" font-family="Times,serif" font-size="14.00">new</text>
<text text-anchor="start" x="492" y="-593.9" font-family="Times,serif" font-size="14.00">show</text>
<polyline fill="none" stroke="black" points="484,-586.5 788,-586.5 "/>
<text text-anchor="start" x="492" y="-569.9" font-family="Times,serif" font-size="14.00">after_confirmation_path_for</text>
<text text-anchor="start" x="492" y="-553.9" font-family="Times,serif" font-size="14.00">after_resending_confirmation_instructions_path_for</text>
<polyline fill="none" stroke="black" points="484,-546.5 788,-546.5 "/>
<text text-anchor="start" x="492" y="-529.9" font-family="Times,serif" font-size="14.00">_layout</text>
<text text-anchor="start" x="492" y="-513.9" font-family="Times,serif" font-size="14.00">_run_process_action_callbacks</text>
</g>
<!-- Devise::OmniauthCallbacksController -->
<g id="node5" class="node"><title>Devise::OmniauthCallbacksController</title>
<polyline fill="none" stroke="black" points="496,-66.5 700,-66.5 "/>
<path fill="none" stroke="black" d="M700,-66.5C706,-66.5 712,-72.5 712,-78.5"/>
<polyline fill="none" stroke="black" points="712,-78.5 712,-214.5 "/>
<path fill="none" stroke="black" d="M712,-214.5C712,-220.5 706,-226.5 700,-226.5"/>
<polyline fill="none" stroke="black" points="700,-226.5 496,-226.5 "/>
<path fill="none" stroke="black" d="M496,-226.5C490,-226.5 484,-220.5 484,-214.5"/>
<polyline fill="none" stroke="black" points="484,-214.5 484,-78.5 "/>
<path fill="none" stroke="black" d="M484,-78.5C484,-72.5 490,-66.5 496,-66.5"/>
<text text-anchor="middle" x="598" y="-209.9" font-family="Times,serif" font-size="14.00">Devise::OmniauthCallbacksController</text>
<polyline fill="none" stroke="black" points="484,-202.5 712,-202.5 "/>
<text text-anchor="start" x="492" y="-185.9" font-family="Times,serif" font-size="14.00">_one_time_conditions_valid_80?</text>
<text text-anchor="start" x="492" y="-169.9" font-family="Times,serif" font-size="14.00">failure</text>
<polyline fill="none" stroke="black" points="484,-162.5 712,-162.5 "/>
<text text-anchor="start" x="492" y="-145.9" font-family="Times,serif" font-size="14.00">after_omniauth_failure_path_for</text>
<text text-anchor="start" x="492" y="-129.9" font-family="Times,serif" font-size="14.00">failed_strategy</text>
<text text-anchor="start" x="492" y="-113.9" font-family="Times,serif" font-size="14.00">failure_message</text>
<polyline fill="none" stroke="black" points="484,-106.5 712,-106.5 "/>
<text text-anchor="start" x="492" y="-89.9" font-family="Times,serif" font-size="14.00">_layout</text>
<text text-anchor="start" x="492" y="-73.9" font-family="Times,serif" font-size="14.00">_run_process_action_callbacks</text>
</g>
<!-- Devise::PasswordsController -->
<g id="node6" class="node"><title>Devise::PasswordsController</title>
<polyline fill="none" stroke="black" points="496,-264.5 781,-264.5 "/>
<path fill="none" stroke="black" d="M781,-264.5C787,-264.5 793,-270.5 793,-276.5"/>
<polyline fill="none" stroke="black" points="793,-276.5 793,-444.5 "/>
<path fill="none" stroke="black" d="M793,-444.5C793,-450.5 787,-456.5 781,-456.5"/>
<polyline fill="none" stroke="black" points="781,-456.5 496,-456.5 "/>
<path fill="none" stroke="black" d="M496,-456.5C490,-456.5 484,-450.5 484,-444.5"/>
<polyline fill="none" stroke="black" points="484,-444.5 484,-276.5 "/>
<path fill="none" stroke="black" d="M484,-276.5C484,-270.5 490,-264.5 496,-264.5"/>
<text text-anchor="middle" x="638.5" y="-439.9" font-family="Times,serif" font-size="14.00">Devise::PasswordsController</text>
<polyline fill="none" stroke="black" points="484,-432.5 793,-432.5 "/>
<text text-anchor="start" x="492" y="-415.9" font-family="Times,serif" font-size="14.00">_one_time_conditions_valid_82?</text>
<text text-anchor="start" x="492" y="-399.9" font-family="Times,serif" font-size="14.00">_one_time_conditions_valid_84?</text>
<text text-anchor="start" x="492" y="-383.9" font-family="Times,serif" font-size="14.00">create</text>
<text text-anchor="start" x="492" y="-367.9" font-family="Times,serif" font-size="14.00">edit</text>
<text text-anchor="start" x="492" y="-351.9" font-family="Times,serif" font-size="14.00">new</text>
<text text-anchor="start" x="492" y="-335.9" font-family="Times,serif" font-size="14.00">update</text>
<polyline fill="none" stroke="black" points="484,-328.5 793,-328.5 "/>
<text text-anchor="start" x="492" y="-311.9" font-family="Times,serif" font-size="14.00">after_sending_reset_password_instructions_path_for</text>
<polyline fill="none" stroke="black" points="484,-304.5 793,-304.5 "/>
<text text-anchor="start" x="492" y="-287.9" font-family="Times,serif" font-size="14.00">_layout</text>
<text text-anchor="start" x="492" y="-271.9" font-family="Times,serif" font-size="14.00">_run_process_action_callbacks</text>
</g>
<!-- Devise::RegistrationsController -->
<g id="node7" class="node"><title>Devise::RegistrationsController</title>
<polyline fill="none" stroke="black" points="254,-220.5 431,-220.5 "/>
<path fill="none" stroke="black" d="M431,-220.5C437,-220.5 443,-226.5 443,-232.5"/>
<polyline fill="none" stroke="black" points="443,-232.5 443,-544.5 "/>
<path fill="none" stroke="black" d="M443,-544.5C443,-550.5 437,-556.5 431,-556.5"/>
<polyline fill="none" stroke="black" points="431,-556.5 254,-556.5 "/>
<path fill="none" stroke="black" d="M254,-556.5C248,-556.5 242,-550.5 242,-544.5"/>
<polyline fill="none" stroke="black" points="242,-544.5 242,-232.5 "/>
<path fill="none" stroke="black" d="M242,-232.5C242,-226.5 248,-220.5 254,-220.5"/>
<text text-anchor="middle" x="342.5" y="-539.9" font-family="Times,serif" font-size="14.00">Devise::RegistrationsController</text>
<polyline fill="none" stroke="black" points="242,-532.5 443,-532.5 "/>
<text text-anchor="start" x="250" y="-515.9" font-family="Times,serif" font-size="14.00">_one_time_conditions_valid_86?</text>
<text text-anchor="start" x="250" y="-499.9" font-family="Times,serif" font-size="14.00">_one_time_conditions_valid_90?</text>
<text text-anchor="start" x="250" y="-483.9" font-family="Times,serif" font-size="14.00">_one_time_conditions_valid_94?</text>
<text text-anchor="start" x="250" y="-467.9" font-family="Times,serif" font-size="14.00">cancel</text>
<text text-anchor="start" x="250" y="-451.9" font-family="Times,serif" font-size="14.00">create</text>
<text text-anchor="start" x="250" y="-435.9" font-family="Times,serif" font-size="14.00">destroy</text>
<text text-anchor="start" x="250" y="-419.9" font-family="Times,serif" font-size="14.00">edit</text>
<text text-anchor="start" x="250" y="-403.9" font-family="Times,serif" font-size="14.00">new</text>
<text text-anchor="start" x="250" y="-387.9" font-family="Times,serif" font-size="14.00">update</text>
<polyline fill="none" stroke="black" points="242,-380.5 443,-380.5 "/>
<text text-anchor="start" x="250" y="-363.9" font-family="Times,serif" font-size="14.00">after_inactive_sign_up_path_for</text>
<text text-anchor="start" x="250" y="-347.9" font-family="Times,serif" font-size="14.00">after_sign_up_path_for</text>
<text text-anchor="start" x="250" y="-331.9" font-family="Times,serif" font-size="14.00">after_update_path_for</text>
<text text-anchor="start" x="250" y="-315.9" font-family="Times,serif" font-size="14.00">authenticate_scope!</text>
<text text-anchor="start" x="250" y="-299.9" font-family="Times,serif" font-size="14.00">build_resource</text>
<text text-anchor="start" x="250" y="-283.9" font-family="Times,serif" font-size="14.00">inactive_reason</text>
<text text-anchor="start" x="250" y="-267.9" font-family="Times,serif" font-size="14.00">redirect_location</text>
<polyline fill="none" stroke="black" points="242,-260.5 443,-260.5 "/>
<text text-anchor="start" x="250" y="-243.9" font-family="Times,serif" font-size="14.00">_layout</text>
<text text-anchor="start" x="250" y="-227.9" font-family="Times,serif" font-size="14.00">_run_process_action_callbacks</text>
</g>
<!-- Devise::SessionsController -->
<g id="node8" class="node"><title>Devise::SessionsController</title>
<polyline fill="none" stroke="black" points="254,-594.5 437,-594.5 "/>
<path fill="none" stroke="black" d="M437,-594.5C443,-594.5 449,-600.5 449,-606.5"/>
<polyline fill="none" stroke="black" points="449,-606.5 449,-774.5 "/>
<path fill="none" stroke="black" d="M449,-774.5C449,-780.5 443,-786.5 437,-786.5"/>
<polyline fill="none" stroke="black" points="437,-786.5 254,-786.5 "/>
<path fill="none" stroke="black" d="M254,-786.5C248,-786.5 242,-780.5 242,-774.5"/>
<polyline fill="none" stroke="black" points="242,-774.5 242,-606.5 "/>
<path fill="none" stroke="black" d="M242,-606.5C242,-600.5 248,-594.5 254,-594.5"/>
<text text-anchor="middle" x="345.5" y="-769.9" font-family="Times,serif" font-size="14.00">Devise::SessionsController</text>
<polyline fill="none" stroke="black" points="242,-762.5 449,-762.5 "/>
<text text-anchor="start" x="250" y="-745.9" font-family="Times,serif" font-size="14.00">_one_time_conditions_valid_100?</text>
<text text-anchor="start" x="250" y="-729.9" font-family="Times,serif" font-size="14.00">_one_time_conditions_valid_104?</text>
<text text-anchor="start" x="250" y="-713.9" font-family="Times,serif" font-size="14.00">_one_time_conditions_valid_96?</text>
<text text-anchor="start" x="250" y="-697.9" font-family="Times,serif" font-size="14.00">create</text>
<text text-anchor="start" x="250" y="-681.9" font-family="Times,serif" font-size="14.00">destroy</text>
<text text-anchor="start" x="250" y="-665.9" font-family="Times,serif" font-size="14.00">new</text>
<polyline fill="none" stroke="black" points="242,-658.5 449,-658.5 "/>
<text text-anchor="start" x="250" y="-641.9" font-family="Times,serif" font-size="14.00">stub_options</text>
<polyline fill="none" stroke="black" points="242,-634.5 449,-634.5 "/>
<text text-anchor="start" x="250" y="-617.9" font-family="Times,serif" font-size="14.00">_layout</text>
<text text-anchor="start" x="250" y="-601.9" font-family="Times,serif" font-size="14.00">_run_process_action_callbacks</text>
</g>
<!-- Devise::UnlocksController -->
<g id="node9" class="node"><title>Devise::UnlocksController</title>
<polyline fill="none" stroke="black" points="694,-726.5 877,-726.5 "/>
<path fill="none" stroke="black" d="M877,-726.5C883,-726.5 889,-732.5 889,-738.5"/>
<polyline fill="none" stroke="black" points="889,-738.5 889,-890.5 "/>
<path fill="none" stroke="black" d="M889,-890.5C889,-896.5 883,-902.5 877,-902.5"/>
<polyline fill="none" stroke="black" points="877,-902.5 694,-902.5 "/>
<path fill="none" stroke="black" d="M694,-902.5C688,-902.5 682,-896.5 682,-890.5"/>
<polyline fill="none" stroke="black" points="682,-890.5 682,-738.5 "/>
<path fill="none" stroke="black" d="M682,-738.5C682,-732.5 688,-726.5 694,-726.5"/>
<text text-anchor="middle" x="785.5" y="-885.9" font-family="Times,serif" font-size="14.00">Devise::UnlocksController</text>
<polyline fill="none" stroke="black" points="682,-878.5 889,-878.5 "/>
<text text-anchor="start" x="690" y="-861.9" font-family="Times,serif" font-size="14.00">_one_time_conditions_valid_106?</text>
<text text-anchor="start" x="690" y="-845.9" font-family="Times,serif" font-size="14.00">_one_time_conditions_valid_108?</text>
<text text-anchor="start" x="690" y="-829.9" font-family="Times,serif" font-size="14.00">create</text>
<text text-anchor="start" x="690" y="-813.9" font-family="Times,serif" font-size="14.00">new</text>
<text text-anchor="start" x="690" y="-797.9" font-family="Times,serif" font-size="14.00">show</text>
<polyline fill="none" stroke="black" points="682,-790.5 889,-790.5 "/>
<polyline fill="none" stroke="black" points="682,-766.5 889,-766.5 "/>
<text text-anchor="start" x="690" y="-749.9" font-family="Times,serif" font-size="14.00">_layout</text>
<text text-anchor="start" x="690" y="-733.9" font-family="Times,serif" font-size="14.00">_run_process_action_callbacks</text>
</g>
<!-- HomepageController -->
<g id="node10" class="node"><title>HomepageController</title>
<polyline fill="none" stroke="black" points="320,-88.5 430,-88.5 "/>
<path fill="none" stroke="black" d="M430,-88.5C436,-88.5 442,-94.5 442,-100.5"/>
<polyline fill="none" stroke="black" points="442,-100.5 442,-172.5 "/>
<path fill="none" stroke="black" d="M442,-172.5C442,-178.5 436,-184.5 430,-184.5"/>
<polyline fill="none" stroke="black" points="430,-184.5 320,-184.5 "/>
<path fill="none" stroke="black" d="M320,-184.5C314,-184.5 308,-178.5 308,-172.5"/>
<polyline fill="none" stroke="black" points="308,-172.5 308,-100.5 "/>
<path fill="none" stroke="black" d="M308,-100.5C308,-94.5 314,-88.5 320,-88.5"/>
<text text-anchor="middle" x="375" y="-167.9" font-family="Times,serif" font-size="14.00">HomepageController</text>
<polyline fill="none" stroke="black" points="308,-160.5 442,-160.5 "/>
<text text-anchor="start" x="316" y="-143.9" font-family="Times,serif" font-size="14.00">index</text>
<polyline fill="none" stroke="black" points="308,-136.5 442,-136.5 "/>
<polyline fill="none" stroke="black" points="308,-112.5 442,-112.5 "/>
<text text-anchor="start" x="316" y="-95.9" font-family="Times,serif" font-size="14.00">_layout</text>
</g>
<!-- PreferencesController -->
<g id="node11" class="node"><title>PreferencesController</title>
<polyline fill="none" stroke="black" points="12,-220.5 179,-220.5 "/>
<path fill="none" stroke="black" d="M179,-220.5C185,-220.5 191,-226.5 191,-232.5"/>
<polyline fill="none" stroke="black" points="191,-232.5 191,-336.5 "/>
<path fill="none" stroke="black" d="M191,-336.5C191,-342.5 185,-348.5 179,-348.5"/>
<polyline fill="none" stroke="black" points="179,-348.5 12,-348.5 "/>
<path fill="none" stroke="black" d="M12,-348.5C6,-348.5 5.68434e-14,-342.5 5.68434e-14,-336.5"/>
<polyline fill="none" stroke="black" points="5.68434e-14,-336.5 5.68434e-14,-232.5 "/>
<path fill="none" stroke="black" d="M5.68434e-14,-232.5C5.68434e-14,-226.5 6,-220.5 12,-220.5"/>
<text text-anchor="middle" x="95.5" y="-331.9" font-family="Times,serif" font-size="14.00">PreferencesController</text>
<polyline fill="none" stroke="black" points="5.68434e-14,-324.5 191,-324.5 "/>
<text text-anchor="start" x="8" y="-307.9" font-family="Times,serif" font-size="14.00">index</text>
<text text-anchor="start" x="8" y="-291.9" font-family="Times,serif" font-size="14.00">update</text>
<polyline fill="none" stroke="black" points="5.68434e-14,-284.5 191,-284.5 "/>
<polyline fill="none" stroke="black" points="5.68434e-14,-260.5 191,-260.5 "/>
<text text-anchor="start" x="8" y="-243.9" font-family="Times,serif" font-size="14.00">_layout</text>
<text text-anchor="start" x="8" y="-227.9" font-family="Times,serif" font-size="14.00">_run_process_action_callbacks</text>
</g>
<!-- Users::OmniauthCallbacksController -->
<g id="node12" class="node"><title>Users::OmniauthCallbacksController</title>
<polyline fill="none" stroke="black" points="56,-88.5 254,-88.5 "/>
<path fill="none" stroke="black" d="M254,-88.5C260,-88.5 266,-94.5 266,-100.5"/>
<polyline fill="none" stroke="black" points="266,-100.5 266,-172.5 "/>
<path fill="none" stroke="black" d="M266,-172.5C266,-178.5 260,-184.5 254,-184.5"/>
<polyline fill="none" stroke="black" points="254,-184.5 56,-184.5 "/>
<path fill="none" stroke="black" d="M56,-184.5C50,-184.5 44,-178.5 44,-172.5"/>
<polyline fill="none" stroke="black" points="44,-172.5 44,-100.5 "/>
<path fill="none" stroke="black" d="M44,-100.5C44,-94.5 50,-88.5 56,-88.5"/>
<text text-anchor="middle" x="155" y="-167.9" font-family="Times,serif" font-size="14.00">Users::OmniauthCallbacksController</text>
<polyline fill="none" stroke="black" points="44,-160.5 266,-160.5 "/>
<text text-anchor="start" x="52" y="-143.9" font-family="Times,serif" font-size="14.00">facebook</text>
<polyline fill="none" stroke="black" points="44,-136.5 266,-136.5 "/>
<polyline fill="none" stroke="black" points="44,-112.5 266,-112.5 "/>
<text text-anchor="start" x="52" y="-95.9" font-family="Times,serif" font-size="14.00">_layout</text>
</g>
</g>
</svg>
