<?xml version="1.0" encoding="UTF-8" standalone="no"?>
<!DOCTYPE svg PUBLIC "-//W3C//DTD SVG 1.1//EN"
 "http://www.w3.org/Graphics/SVG/1.1/DTD/svg11.dtd">
<!-- Generated by graphviz version 2.28.0 (20111004.1710)
 -->
<!-- Title: models_diagram Pages: 1 -->
<svg width="695pt" height="164pt"
 viewBox="0.00 0.00 695.00 164.00" xmlns="http://www.w3.org/2000/svg" xmlns:xlink="http://www.w3.org/1999/xlink">
<g id="graph1" class="graph" transform="scale(1 1) rotate(0) translate(4 160)">
<title>models_diagram</title>
<polygon fill="white" stroke="white" points="-4,5 -4,-160 692,-160 692,5 -4,5"/>
<!-- _diagram_info -->
<g id="node1" class="node"><title>_diagram_info</title>
<text text-anchor="start" x="8" y="-139.8" font-family="Times,serif" font-size="13.00">Models diagram</text>
<text text-anchor="start" x="8" y="-124.8" font-family="Times,serif" font-size="13.00">Date: Oct 04 2011 &#45; 13:13</text>
<text text-anchor="start" x="8" y="-109.8" font-family="Times,serif" font-size="13.00">Migration version: 20111004135455</text>
<text text-anchor="start" x="8" y="-94.8" font-family="Times,serif" font-size="13.00">Generated by RailRoady 1.0.2</text>
<text text-anchor="start" x="8" y="-79.8" font-family="Times,serif" font-size="13.00">http://railroady.prestonlee.com</text>
</g>
<!-- Authorization -->
<g id="node2" class="node"><title>Authorization</title>
<ellipse fill="none" stroke="black" cx="138" cy="-18" rx="62.08" ry="18"/>
<text text-anchor="middle" x="138" y="-13.4" font-family="Times,serif" font-size="14.00">Authorization</text>
</g>
<!-- College -->
<g id="node3" class="node"><title>College</title>
<ellipse fill="none" stroke="black" cx="409" cy="-114" rx="39.3672" ry="18"/>
<text text-anchor="middle" x="409" y="-109.4" font-family="Times,serif" font-size="14.00">College</text>
</g>
<!-- Course -->
<g id="node4" class="node"><title>Course</title>
<ellipse fill="none" stroke="black" cx="462" cy="-18" rx="37.3485" ry="18"/>
<text text-anchor="middle" x="462" y="-13.4" font-family="Times,serif" font-size="14.00">Course</text>
</g>
<!-- College&#45;&gt;Course -->
<g id="edge2" class="edge"><title>College&#45;&gt;Course</title>
<path fill="none" stroke="black" d="M422.571,-88.9311C430.215,-75.3737 439.76,-58.4446 447.544,-44.6388"/>
<ellipse fill="none" stroke="black" cx="420.44" cy="-92.7104" rx="4.00002" ry="4.00002"/>
<polygon fill="black" stroke="black" points="447.695,-44.3706 456.527,-37.87 450.151,-40.0152 452.607,-35.6598 452.607,-35.6598 452.607,-35.6598 450.151,-40.0152 448.687,-33.4497 447.695,-44.3706 447.695,-44.3706"/>
</g>
<!-- Friend -->
<g id="node5" class="node"><title>Friend</title>
<ellipse fill="none" stroke="black" cx="253" cy="-18" rx="34.3259" ry="18"/>
<text text-anchor="middle" x="253" y="-13.4" font-family="Times,serif" font-size="14.00">Friend</text>
</g>
<!-- Instructor -->
<g id="node6" class="node"><title>Instructor</title>
<ellipse fill="none" stroke="black" cx="514" cy="-114" rx="46.4366" ry="18"/>
<text text-anchor="middle" x="514" y="-109.4" font-family="Times,serif" font-size="14.00">Instructor</text>
</g>
<!-- Instructor&#45;&gt;Course -->
<g id="edge4" class="edge"><title>Instructor&#45;&gt;Course</title>
<path fill="none" stroke="black" d="M500.685,-88.9311C493.185,-75.3737 483.82,-58.4446 476.183,-44.6388"/>
<ellipse fill="none" stroke="black" cx="502.767" cy="-92.6945" rx="4.00002" ry="4.00002"/>
<polygon fill="black" stroke="black" points="476.057,-44.4102 475.154,-33.4815 473.636,-40.035 471.216,-35.6598 471.216,-35.6598 471.216,-35.6598 473.636,-40.035 467.278,-37.8381 476.057,-44.4102 476.057,-44.4102"/>
</g>
<!-- Preferences -->
<g id="node7" class="node"><title>Preferences</title>
<ellipse fill="none" stroke="black" cx="633" cy="-114" rx="54.0057" ry="18"/>
<text text-anchor="middle" x="633" y="-109.4" font-family="Times,serif" font-size="14.00">Preferences</text>
</g>
<!-- User -->
<g id="node8" class="node"><title>User</title>
<ellipse fill="none" stroke="black" cx="253" cy="-114" rx="28.271" ry="18"/>
<text text-anchor="middle" x="253" y="-109.4" font-family="Times,serif" font-size="14.00">User</text>
</g>
<!-- User&#45;&gt;Authorization -->
<g id="edge6" class="edge"><title>User&#45;&gt;Authorization</title>
<path fill="none" stroke="black" d="M234.704,-91.4826C228.708,-84.9299 221.827,-77.9045 215,-72 201.81,-60.5914 186.125,-49.4219 172.365,-40.3009"/>
<ellipse fill="none" stroke="black" cx="237.703" cy="-94.8369" rx="4.00002" ry="4.00002"/>
<polygon fill="black" stroke="black" points="172.025,-40.0794 166.102,-30.8505 167.835,-37.3502 163.646,-34.6211 163.646,-34.6211 163.646,-34.6211 167.835,-37.3502 161.19,-38.3916 172.025,-40.0794 172.025,-40.0794"/>
</g>
<!-- User&#45;&gt;Friend -->
<g id="edge8" class="edge"><title>User&#45;&gt;Friend</title>
<path fill="none" stroke="black" d="M253,-87.6832C253,-74.9229 253,-59.4317 253,-46.3933"/>
<ellipse fill="none" stroke="black" cx="253" cy="-91.759" rx="4" ry="4"/>
<polygon fill="black" stroke="black" points="253,-46.1317 257.5,-36.1317 253,-41.1317 253,-36.1317 253,-36.1317 253,-36.1317 253,-41.1317 248.5,-36.1318 253,-46.1317 253,-46.1317"/>
</g>
<!-- Preference -->
<g id="node14" class="node"><title>Preference</title>
<ellipse fill="none" stroke="black" cx="356" cy="-18" rx="49.9686" ry="18"/>
<text text-anchor="middle" x="356" y="-13.4" font-family="Times,serif" font-size="14.00">Preference</text>
</g>
<!-- User&#45;&gt;Preference -->
<g id="edge10" class="edge"><title>User&#45;&gt;Preference</title>
<path fill="none" stroke="black" d="M274.736,-93.1629C291.631,-77.7447 315.032,-56.3883 332.385,-40.5512"/>
<ellipse fill="none" stroke="black" cx="271.598" cy="-96.027" rx="4.00002" ry="4.00002"/>
<ellipse fill="black" stroke="black" cx="335.527" cy="-37.6838" rx="4.00002" ry="4.00002"/>
</g>
</g>
</svg>
