<?xml version="1.0" encoding="UTF-8" standalone="no"?>
<!DOCTYPE svg PUBLIC "-//W3C//DTD SVG 1.1//EN"
 "http://www.w3.org/Graphics/SVG/1.1/DTD/svg11.dtd">
<!-- Generated by graphviz version 2.28.0 (20111128.2152)
 -->
<!-- Title: models_diagram Pages: 1 -->
<svg width="1129pt" height="164pt"
 viewBox="0.00 0.00 1129.00 164.00" xmlns="http://www.w3.org/2000/svg" xmlns:xlink="http://www.w3.org/1999/xlink">
<g id="graph1" class="graph" transform="scale(1 1) rotate(0) translate(4 160)">
<title>models_diagram</title>
<polygon fill="white" stroke="white" points="-4,5 -4,-160 1126,-160 1126,5 -4,5"/>
<!-- _diagram_info -->
<g id="node1" class="node"><title>_diagram_info</title>
<text text-anchor="start" x="8" y="-139.8" font-family="Times,serif" font-size="13.00">Models diagram</text>
<text text-anchor="start" x="8" y="-124.8" font-family="Times,serif" font-size="13.00">Date: Nov 28 2011 &#45; 16:54</text>
<text text-anchor="start" x="8" y="-109.8" font-family="Times,serif" font-size="13.00">Migration version: 20111128214828</text>
<text text-anchor="start" x="8" y="-94.8" font-family="Times,serif" font-size="13.00">Generated by RailRoady 1.0.2</text>
<text text-anchor="start" x="8" y="-79.8" font-family="Times,serif" font-size="13.00">http://railroady.prestonlee.com</text>
</g>
<!-- Authorization -->
<g id="node2" class="node"><title>Authorization</title>
<ellipse fill="none" stroke="black" cx="83" cy="-18" rx="62.08" ry="18"/>
<text text-anchor="middle" x="83" y="-13.4" font-family="Times,serif" font-size="14.00">Authorization</text>
</g>
<!-- College -->
<g id="node3" class="node"><title>College</title>
<ellipse fill="none" stroke="black" cx="484" cy="-114" rx="39.3672" ry="18"/>
<text text-anchor="middle" x="484" y="-109.4" font-family="Times,serif" font-size="14.00">College</text>
</g>
<!-- Course -->
<g id="node5" class="node"><title>Course</title>
<ellipse fill="none" stroke="black" cx="537" cy="-18" rx="37.3485" ry="18"/>
<text text-anchor="middle" x="537" y="-13.4" font-family="Times,serif" font-size="14.00">Course</text>
</g>
<!-- College&#45;&gt;Course -->
<g id="edge2" class="edge"><title>College&#45;&gt;Course</title>
<path fill="none" stroke="black" d="M497.571,-88.9311C505.215,-75.3737 514.76,-58.4446 522.544,-44.6388"/>
<ellipse fill="none" stroke="black" cx="495.44" cy="-92.7104" rx="4.00002" ry="4.00002"/>
<polygon fill="black" stroke="black" points="522.695,-44.3706 531.527,-37.87 525.151,-40.0152 527.607,-35.6598 527.607,-35.6598 527.607,-35.6598 525.151,-40.0152 523.687,-33.4497 522.695,-44.3706 522.695,-44.3706"/>
</g>
<!-- CollegeImporter -->
<g id="node4" class="node"><title>CollegeImporter</title>
<polygon fill="none" stroke="black" stroke-dasharray="1,5" points="762,-132 654,-132 654,-96 762,-96 762,-132"/>
<text text-anchor="middle" x="708" y="-109.4" font-family="Times,serif" font-size="14.00">CollegeImporter</text>
</g>
<!-- Friend -->
<g id="node6" class="node"><title>Friend</title>
<ellipse fill="none" stroke="black" cx="198" cy="-18" rx="34.3259" ry="18"/>
<text text-anchor="middle" x="198" y="-13.4" font-family="Times,serif" font-size="14.00">Friend</text>
</g>
<!-- Instructor -->
<g id="node7" class="node"><title>Instructor</title>
<ellipse fill="none" stroke="black" cx="589" cy="-114" rx="46.4366" ry="18"/>
<text text-anchor="middle" x="589" y="-109.4" font-family="Times,serif" font-size="14.00">Instructor</text>
</g>
<!-- Instructor&#45;&gt;Course -->
<g id="edge4" class="edge"><title>Instructor&#45;&gt;Course</title>
<path fill="none" stroke="black" d="M575.685,-88.9311C568.185,-75.3737 558.82,-58.4446 551.183,-44.6388"/>
<ellipse fill="none" stroke="black" cx="577.767" cy="-92.6945" rx="4.00002" ry="4.00002"/>
<polygon fill="black" stroke="black" points="551.057,-44.4102 550.154,-33.4815 548.636,-40.035 546.216,-35.6598 546.216,-35.6598 546.216,-35.6598 548.636,-40.035 542.278,-37.8381 551.057,-44.4102 551.057,-44.4102"/>
</g>
<!-- PendingInvite -->
<g id="node8" class="node"><title>PendingInvite</title>
<ellipse fill="none" stroke="black" cx="842" cy="-114" rx="62.08" ry="18"/>
<text text-anchor="middle" x="842" y="-109.4" font-family="Times,serif" font-size="14.00">PendingInvite</text>
</g>
<!-- Preferences -->
<g id="node9" class="node"><title>Preferences</title>
<ellipse fill="none" stroke="black" cx="977" cy="-114" rx="54.0057" ry="18"/>
<text text-anchor="middle" x="977" y="-109.4" font-family="Times,serif" font-size="14.00">Preferences</text>
</g>
<!-- Scheduler -->
<g id="node10" class="node"><title>Scheduler</title>
<polygon fill="none" stroke="black" points="1121,-132 1049,-132 1049,-96 1121,-96 1121,-132"/>
<text text-anchor="middle" x="1085" y="-109.4" font-family="Times,serif" font-size="14.00">Scheduler</text>
</g>
<!-- User -->
<g id="node11" class="node"><title>User</title>
<ellipse fill="none" stroke="black" cx="253" cy="-114" rx="28.271" ry="18"/>
<text text-anchor="middle" x="253" y="-109.4" font-family="Times,serif" font-size="14.00">User</text>
</g>
<!-- User&#45;&gt;Authorization -->
<g id="edge6" class="edge"><title>User&#45;&gt;Authorization</title>
<path fill="none" stroke="black" d="M236.108,-91.2604C230.01,-84.4356 222.713,-77.3064 215,-72 191.112,-55.5663 161.369,-43.0581 136.167,-34.3317"/>
<ellipse fill="none" stroke="black" cx="238.747" cy="-94.343" rx="4.00002" ry="4.00002"/>
<polygon fill="black" stroke="black" points="135.876,-34.2344 127.825,-26.7894 131.135,-32.6452 126.395,-31.0561 126.395,-31.0561 126.395,-31.0561 131.135,-32.6452 124.964,-35.3227 135.876,-34.2344 135.876,-34.2344"/>
</g>
<!-- User&#45;&gt;Friend -->
<g id="edge8" class="edge"><title>User&#45;&gt;Friend</title>
<path fill="none" stroke="black" d="M239.15,-89.3293C231.089,-75.5517 220.931,-58.1908 212.724,-44.1652"/>
<ellipse fill="none" stroke="black" cx="241.4" cy="-93.174" rx="4.00002" ry="4.00002"/>
<polygon fill="black" stroke="black" points="212.705,-44.1324 211.539,-33.2287 210.18,-39.8169 207.655,-35.5013 207.655,-35.5013 207.655,-35.5013 210.18,-39.8169 203.771,-37.7739 212.705,-44.1324 212.705,-44.1324"/>
</g>
<!-- UserCourse -->
<g id="node12" class="node"><title>UserCourse</title>
<ellipse fill="none" stroke="black" cx="307" cy="-18" rx="55.5166" ry="18"/>
<text text-anchor="middle" x="307" y="-13.4" font-family="Times,serif" font-size="14.00">UserCourse</text>
</g>
<!-- User&#45;&gt;UserCourse -->
<g id="edge12" class="edge"><title>User&#45;&gt;UserCourse</title>
<path fill="none" stroke="black" d="M266.571,-89.3767C274.358,-75.8221 284.143,-58.7874 292.137,-44.8726"/>
<ellipse fill="none" stroke="black" cx="264.399" cy="-93.158" rx="4.00002" ry="4.00002"/>
<polygon fill="black" stroke="black" points="292.357,-44.4899 301.24,-38.0605 294.847,-40.1544 297.338,-35.8189 297.338,-35.8189 297.338,-35.8189 294.847,-40.1544 293.436,-33.5773 292.357,-44.4899 292.357,-44.4899"/>
</g>
<!-- Preference -->
<g id="node18" class="node"><title>Preference</title>
<ellipse fill="none" stroke="black" cx="431" cy="-18" rx="49.9686" ry="18"/>
<text text-anchor="middle" x="431" y="-13.4" font-family="Times,serif" font-size="14.00">Preference</text>
</g>
<!-- User&#45;&gt;Preference -->
<g id="edge10" class="edge"><title>User&#45;&gt;Preference</title>
<path fill="none" stroke="black" d="M281.375,-98.0155C312.749,-81.4474 363.278,-54.7632 396.81,-37.0554"/>
<ellipse fill="none" stroke="black" cx="277.655" cy="-99.9799" rx="4.00002" ry="4.00002"/>
<ellipse fill="black" stroke="black" cx="400.574" cy="-35.0679" rx="4.00002" ry="4.00002"/>
</g>
</g>
</svg>
