<?xml version="1.0" encoding="UTF-8" standalone="no"?>
<!DOCTYPE svg PUBLIC "-//W3C//DTD SVG 1.1//EN"
 "http://www.w3.org/Graphics/SVG/1.1/DTD/svg11.dtd">
<!-- Generated by graphviz version 2.28.0 (20111004.1710)
 -->
<!-- Title: models_diagram Pages: 1 -->
<svg width="988pt" height="512pt"
 viewBox="0.00 0.00 988.00 512.00" xmlns="http://www.w3.org/2000/svg" xmlns:xlink="http://www.w3.org/1999/xlink">
<g id="graph1" class="graph" transform="scale(1 1) rotate(0) translate(4 508)">
<title>models_diagram</title>
<polygon fill="white" stroke="white" points="-4,5 -4,-508 985,-508 985,5 -4,5"/>
<!-- _diagram_info -->
<g id="node1" class="node"><title>_diagram_info</title>
<text text-anchor="start" x="8" y="-424.8" font-family="Times,serif" font-size="13.00">Models diagram</text>
<text text-anchor="start" x="8" y="-409.8" font-family="Times,serif" font-size="13.00">Date: Oct 04 2011 &#45; 13:13</text>
<text text-anchor="start" x="8" y="-394.8" font-family="Times,serif" font-size="13.00">Migration version: 20111004135455</text>
<text text-anchor="start" x="8" y="-379.8" font-family="Times,serif" font-size="13.00">Generated by RailRoady 1.0.2</text>
<text text-anchor="start" x="8" y="-364.8" font-family="Times,serif" font-size="13.00">http://railroady.prestonlee.com</text>
</g>
<!-- Authorization -->
<g id="node2" class="node"><title>Authorization</title>
<polyline fill="none" stroke="black" points="121.5,-73 230.5,-73 "/>
<path fill="none" stroke="black" d="M230.5,-73C236.5,-73 242.5,-79 242.5,-85"/>
<polyline fill="none" stroke="black" points="242.5,-85 242.5,-173 "/>
<path fill="none" stroke="black" d="M242.5,-173C242.5,-179 236.5,-185 230.5,-185"/>
<polyline fill="none" stroke="black" points="230.5,-185 121.5,-185 "/>
<path fill="none" stroke="black" d="M121.5,-185C115.5,-185 109.5,-179 109.5,-173"/>
<polyline fill="none" stroke="black" points="109.5,-173 109.5,-85 "/>
<path fill="none" stroke="black" d="M109.5,-85C109.5,-79 115.5,-73 121.5,-73"/>
<text text-anchor="middle" x="176" y="-168.4" font-family="Times,serif" font-size="14.00">Authorization</text>
<polyline fill="none" stroke="black" points="109.5,-161 242.5,-161 "/>
<text text-anchor="start" x="117.5" y="-144.4" font-family="Times,serif" font-size="14.00">uid :integer</text>
<text text-anchor="start" x="117.5" y="-128.4" font-family="Times,serif" font-size="14.00">provider :string</text>
<text text-anchor="start" x="117.5" y="-112.4" font-family="Times,serif" font-size="14.00">token :string</text>
<text text-anchor="start" x="117.5" y="-96.4" font-family="Times,serif" font-size="14.00">created_at :datetime</text>
<text text-anchor="start" x="117.5" y="-80.4" font-family="Times,serif" font-size="14.00">updated_at :datetime</text>
</g>
<!-- College -->
<g id="node3" class="node"><title>College</title>
<polyline fill="none" stroke="black" points="525.5,-343 634.5,-343 "/>
<path fill="none" stroke="black" d="M634.5,-343C640.5,-343 646.5,-349 646.5,-355"/>
<polyline fill="none" stroke="black" points="646.5,-355 646.5,-443 "/>
<path fill="none" stroke="black" d="M646.5,-443C646.5,-449 640.5,-455 634.5,-455"/>
<polyline fill="none" stroke="black" points="634.5,-455 525.5,-455 "/>
<path fill="none" stroke="black" d="M525.5,-455C519.5,-455 513.5,-449 513.5,-443"/>
<polyline fill="none" stroke="black" points="513.5,-443 513.5,-355 "/>
<path fill="none" stroke="black" d="M513.5,-355C513.5,-349 519.5,-343 525.5,-343"/>
<text text-anchor="middle" x="580" y="-438.4" font-family="Times,serif" font-size="14.00">College</text>
<polyline fill="none" stroke="black" points="513.5,-431 646.5,-431 "/>
<text text-anchor="start" x="521.5" y="-414.4" font-family="Times,serif" font-size="14.00">name :string</text>
<text text-anchor="start" x="521.5" y="-398.4" font-family="Times,serif" font-size="14.00">state :string</text>
<text text-anchor="start" x="521.5" y="-382.4" font-family="Times,serif" font-size="14.00">created_at :datetime</text>
<text text-anchor="start" x="521.5" y="-366.4" font-family="Times,serif" font-size="14.00">updated_at :datetime</text>
<text text-anchor="start" x="521.5" y="-350.4" font-family="Times,serif" font-size="14.00">college_tag :string</text>
</g>
<!-- Course -->
<g id="node4" class="node"><title>Course</title>
<polyline fill="none" stroke="black" points="542,-1 748,-1 "/>
<path fill="none" stroke="black" d="M748,-1C754,-1 760,-7 760,-13"/>
<polyline fill="none" stroke="black" points="760,-13 760,-245 "/>
<path fill="none" stroke="black" d="M760,-245C760,-251 754,-257 748,-257"/>
<polyline fill="none" stroke="black" points="748,-257 542,-257 "/>
<path fill="none" stroke="black" d="M542,-257C536,-257 530,-251 530,-245"/>
<polyline fill="none" stroke="black" points="530,-245 530,-13 "/>
<path fill="none" stroke="black" d="M530,-13C530,-7 536,-1 542,-1"/>
<text text-anchor="middle" x="645" y="-240.4" font-family="Times,serif" font-size="14.00">Course</text>
<polyline fill="none" stroke="black" points="530,-233 760,-233 "/>
<text text-anchor="start" x="538" y="-216.4" font-family="Times,serif" font-size="14.00">course_number :string</text>
<text text-anchor="start" x="538" y="-200.4" font-family="Times,serif" font-size="14.00">section :string</text>
<text text-anchor="start" x="538" y="-184.4" font-family="Times,serif" font-size="14.00">title :string</text>
<text text-anchor="start" x="538" y="-168.4" font-family="Times,serif" font-size="14.00">reference_number :string</text>
<text text-anchor="start" x="538" y="-152.4" font-family="Times,serif" font-size="14.00">seats :integer</text>
<text text-anchor="start" x="538" y="-136.4" font-family="Times,serif" font-size="14.00">seats_left :integer</text>
<text text-anchor="start" x="538" y="-120.4" font-family="Times,serif" font-size="14.00">building :string</text>
<text text-anchor="start" x="538" y="-104.4" font-family="Times,serif" font-size="14.00">room :string</text>
<text text-anchor="start" x="538" y="-88.4" font-family="Times,serif" font-size="14.00">begin_time :time</text>
<text text-anchor="start" x="538" y="-72.4" font-family="Times,serif" font-size="14.00">end_time :time</text>
<text text-anchor="start" x="538" y="-56.4" font-family="Times,serif" font-size="14.00">days :string</text>
<text text-anchor="start" x="538" y="-40.4" font-family="Times,serif" font-size="14.00">created_at :datetime</text>
<text text-anchor="start" x="538" y="-24.4" font-family="Times,serif" font-size="14.00">updated_at :datetime</text>
<text text-anchor="start" x="538" y="-8.4" font-family="Times,serif" font-size="14.00">course_college_instructor_hash :string</text>
</g>
<!-- College&#45;&gt;Course -->
<g id="edge2" class="edge"><title>College&#45;&gt;Course</title>
<path fill="none" stroke="black" d="M595.276,-335.016C600.268,-314.435 606.022,-290.711 611.805,-266.866"/>
<ellipse fill="none" stroke="black" cx="594.332" cy="-338.908" rx="4.00001" ry="4.00001"/>
<polygon fill="black" stroke="black" points="611.838,-266.729 618.568,-258.071 613.017,-261.87 614.195,-257.011 614.195,-257.011 614.195,-257.011 613.017,-261.87 609.822,-255.95 611.838,-266.729 611.838,-266.729"/>
</g>
<!-- Friend -->
<g id="node5" class="node"><title>Friend</title>
<polyline fill="none" stroke="black" points="272.5,-89 381.5,-89 "/>
<path fill="none" stroke="black" d="M381.5,-89C387.5,-89 393.5,-95 393.5,-101"/>
<polyline fill="none" stroke="black" points="393.5,-101 393.5,-157 "/>
<path fill="none" stroke="black" d="M393.5,-157C393.5,-163 387.5,-169 381.5,-169"/>
<polyline fill="none" stroke="black" points="381.5,-169 272.5,-169 "/>
<path fill="none" stroke="black" d="M272.5,-169C266.5,-169 260.5,-163 260.5,-157"/>
<polyline fill="none" stroke="black" points="260.5,-157 260.5,-101 "/>
<path fill="none" stroke="black" d="M260.5,-101C260.5,-95 266.5,-89 272.5,-89"/>
<text text-anchor="middle" x="327" y="-152.4" font-family="Times,serif" font-size="14.00">Friend</text>
<polyline fill="none" stroke="black" points="260.5,-145 393.5,-145 "/>
<text text-anchor="start" x="268.5" y="-128.4" font-family="Times,serif" font-size="14.00">created_at :datetime</text>
<text text-anchor="start" x="268.5" y="-112.4" font-family="Times,serif" font-size="14.00">updated_at :datetime</text>
<text text-anchor="start" x="268.5" y="-96.4" font-family="Times,serif" font-size="14.00">picture :string</text>
</g>
<!-- Instructor -->
<g id="node6" class="node"><title>Instructor</title>
<polyline fill="none" stroke="black" points="676.5,-343 817.5,-343 "/>
<path fill="none" stroke="black" d="M817.5,-343C823.5,-343 829.5,-349 829.5,-355"/>
<polyline fill="none" stroke="black" points="829.5,-355 829.5,-443 "/>
<path fill="none" stroke="black" d="M829.5,-443C829.5,-449 823.5,-455 817.5,-455"/>
<polyline fill="none" stroke="black" points="817.5,-455 676.5,-455 "/>
<path fill="none" stroke="black" d="M676.5,-455C670.5,-455 664.5,-449 664.5,-443"/>
<polyline fill="none" stroke="black" points="664.5,-443 664.5,-355 "/>
<path fill="none" stroke="black" d="M664.5,-355C664.5,-349 670.5,-343 676.5,-343"/>
<text text-anchor="middle" x="747" y="-438.4" font-family="Times,serif" font-size="14.00">Instructor</text>
<polyline fill="none" stroke="black" points="664.5,-431 829.5,-431 "/>
<text text-anchor="start" x="672.5" y="-414.4" font-family="Times,serif" font-size="14.00">name :string</text>
<text text-anchor="start" x="672.5" y="-398.4" font-family="Times,serif" font-size="14.00">created_at :datetime</text>
<text text-anchor="start" x="672.5" y="-382.4" font-family="Times,serif" font-size="14.00">updated_at :datetime</text>
<text text-anchor="start" x="672.5" y="-366.4" font-family="Times,serif" font-size="14.00">last_name :string</text>
<text text-anchor="start" x="672.5" y="-350.4" font-family="Times,serif" font-size="14.00">college_name_hash :string</text>
</g>
<!-- Instructor&#45;&gt;Course -->
<g id="edge4" class="edge"><title>Instructor&#45;&gt;Course</title>
<path fill="none" stroke="black" d="M723.029,-335.016C715.161,-314.344 706.086,-290.5 696.97,-266.548"/>
<ellipse fill="none" stroke="black" cx="724.566" cy="-339.057" rx="4.00001" ry="4.00001"/>
<polygon fill="black" stroke="black" points="696.897,-266.357 697.546,-255.41 695.118,-261.684 693.34,-257.011 693.34,-257.011 693.34,-257.011 695.118,-261.684 689.134,-258.611 696.897,-266.357 696.897,-266.357"/>
</g>
<!-- Preferences -->
<g id="node7" class="node"><title>Preferences</title>
<polyline fill="none" stroke="black" points="859.5,-343 968.5,-343 "/>
<path fill="none" stroke="black" d="M968.5,-343C974.5,-343 980.5,-349 980.5,-355"/>
<polyline fill="none" stroke="black" points="980.5,-355 980.5,-443 "/>
<path fill="none" stroke="black" d="M980.5,-443C980.5,-449 974.5,-455 968.5,-455"/>
<polyline fill="none" stroke="black" points="968.5,-455 859.5,-455 "/>
<path fill="none" stroke="black" d="M859.5,-455C853.5,-455 847.5,-449 847.5,-443"/>
<polyline fill="none" stroke="black" points="847.5,-443 847.5,-355 "/>
<path fill="none" stroke="black" d="M847.5,-355C847.5,-349 853.5,-343 859.5,-343"/>
<text text-anchor="middle" x="914" y="-438.4" font-family="Times,serif" font-size="14.00">Preferences</text>
<polyline fill="none" stroke="black" points="847.5,-431 980.5,-431 "/>
<text text-anchor="start" x="855.5" y="-414.4" font-family="Times,serif" font-size="14.00">class_time :string</text>
<text text-anchor="start" x="855.5" y="-398.4" font-family="Times,serif" font-size="14.00">lunch_time :time</text>
<text text-anchor="start" x="855.5" y="-382.4" font-family="Times,serif" font-size="14.00">created_at :datetime</text>
<text text-anchor="start" x="855.5" y="-366.4" font-family="Times,serif" font-size="14.00">updated_at :datetime</text>
<text text-anchor="start" x="855.5" y="-350.4" font-family="Times,serif" font-size="14.00">workdays :string</text>
</g>
<!-- User -->
<g id="node8" class="node"><title>User</title>
<polyline fill="none" stroke="black" points="236.5,-295 417.5,-295 "/>
<path fill="none" stroke="black" d="M417.5,-295C423.5,-295 429.5,-301 429.5,-307"/>
<polyline fill="none" stroke="black" points="429.5,-307 429.5,-491 "/>
<path fill="none" stroke="black" d="M429.5,-491C429.5,-497 423.5,-503 417.5,-503"/>
<polyline fill="none" stroke="black" points="417.5,-503 236.5,-503 "/>
<path fill="none" stroke="black" d="M236.5,-503C230.5,-503 224.5,-497 224.5,-491"/>
<polyline fill="none" stroke="black" points="224.5,-491 224.5,-307 "/>
<path fill="none" stroke="black" d="M224.5,-307C224.5,-301 230.5,-295 236.5,-295"/>
<text text-anchor="middle" x="327" y="-486.4" font-family="Times,serif" font-size="14.00">User</text>
<polyline fill="none" stroke="black" points="224.5,-479 429.5,-479 "/>
<text text-anchor="start" x="232.5" y="-462.4" font-family="Times,serif" font-size="14.00">email :string</text>
<text text-anchor="start" x="232.5" y="-446.4" font-family="Times,serif" font-size="14.00">encrypted_password :string</text>
<text text-anchor="start" x="232.5" y="-430.4" font-family="Times,serif" font-size="14.00">reset_password_token :string</text>
<text text-anchor="start" x="232.5" y="-414.4" font-family="Times,serif" font-size="14.00">reset_password_sent_at :datetime</text>
<text text-anchor="start" x="232.5" y="-398.4" font-family="Times,serif" font-size="14.00">remember_created_at :datetime</text>
<text text-anchor="start" x="232.5" y="-382.4" font-family="Times,serif" font-size="14.00">current_sign_in_at :datetime</text>
<text text-anchor="start" x="232.5" y="-366.4" font-family="Times,serif" font-size="14.00">last_sign_in_at :datetime</text>
<text text-anchor="start" x="232.5" y="-350.4" font-family="Times,serif" font-size="14.00">current_sign_in_ip :string</text>
<text text-anchor="start" x="232.5" y="-334.4" font-family="Times,serif" font-size="14.00">last_sign_in_ip :string</text>
<text text-anchor="start" x="232.5" y="-318.4" font-family="Times,serif" font-size="14.00">created_at :datetime</text>
<text text-anchor="start" x="232.5" y="-302.4" font-family="Times,serif" font-size="14.00">updated_at :datetime</text>
</g>
<!-- User&#45;&gt;Authorization -->
<g id="edge6" class="edge"><title>User&#45;&gt;Authorization</title>
<path fill="none" stroke="black" d="M264.874,-287.736C246.915,-255.863 227.914,-222.139 212.111,-194.09"/>
<ellipse fill="none" stroke="black" cx="266.872" cy="-291.283" rx="4.00002" ry="4.00002"/>
<polygon fill="black" stroke="black" points="212.006,-193.905 211.018,-182.984 209.552,-189.549 207.097,-185.193 207.097,-185.193 207.097,-185.193 209.552,-189.549 203.177,-187.402 212.006,-193.905 212.006,-193.905"/>
</g>
<!-- User&#45;&gt;Friend -->
<g id="edge8" class="edge"><title>User&#45;&gt;Friend</title>
<path fill="none" stroke="black" d="M327,-286.739C327,-249.4 327,-209.634 327,-179.5"/>
<ellipse fill="none" stroke="black" cx="327" cy="-290.768" rx="4" ry="4"/>
<polygon fill="black" stroke="black" points="327,-179.262 331.5,-169.262 327,-174.262 327,-169.262 327,-169.262 327,-169.262 327,-174.262 322.5,-169.262 327,-179.262 327,-179.262"/>
</g>
<!-- Preference -->
<g id="node14" class="node"><title>Preference</title>
<ellipse fill="none" stroke="black" cx="462" cy="-129" rx="49.9686" ry="18"/>
<text text-anchor="middle" x="462" y="-124.4" font-family="Times,serif" font-size="14.00">Preference</text>
</g>
<!-- User&#45;&gt;Preference -->
<g id="edge10" class="edge"><title>User&#45;&gt;Preference</title>
<path fill="none" stroke="black" d="M386.901,-287.497C392.076,-277.558 397.174,-267.618 402,-258 419.855,-222.416 439.174,-180.532 450.932,-154.621"/>
<ellipse fill="none" stroke="black" cx="384.975" cy="-291.184" rx="4.00002" ry="4.00002"/>
<ellipse fill="black" stroke="black" cx="452.679" cy="-150.761" rx="4.00002" ry="4.00002"/>
</g>
</g>
</svg>
