<?xml version="1.0" encoding="UTF-8" standalone="no"?>
<!DOCTYPE svg PUBLIC "-//W3C//DTD SVG 1.1//EN"
 "http://www.w3.org/Graphics/SVG/1.1/DTD/svg11.dtd">
<!-- Generated by graphviz version 2.28.0 (20111128.2152)
 -->
<!-- Title: models_diagram Pages: 1 -->
<svg width="1414pt" height="544pt"
 viewBox="0.00 0.00 1414.00 544.00" xmlns="http://www.w3.org/2000/svg" xmlns:xlink="http://www.w3.org/1999/xlink">
<g id="graph1" class="graph" transform="scale(1 1) rotate(0) translate(4 540)">
<title>models_diagram</title>
<polygon fill="white" stroke="white" points="-4,5 -4,-540 1411,-540 1411,5 -4,5"/>
<!-- _diagram_info -->
<g id="node1" class="node"><title>_diagram_info</title>
<text text-anchor="start" x="8" y="-456.8" font-family="Times,serif" font-size="13.00">Models diagram</text>
<text text-anchor="start" x="8" y="-441.8" font-family="Times,serif" font-size="13.00">Date: Nov 28 2011 &#45; 18:08</text>
<text text-anchor="start" x="8" y="-426.8" font-family="Times,serif" font-size="13.00">Migration version: 20111128220156</text>
<text text-anchor="start" x="8" y="-411.8" font-family="Times,serif" font-size="13.00">Generated by RailRoady 1.0.2</text>
<text text-anchor="start" x="8" y="-396.8" font-family="Times,serif" font-size="13.00">http://railroady.prestonlee.com</text>
</g>
<!-- Authorization -->
<g id="node2" class="node"><title>Authorization</title>
<polyline fill="none" stroke="black" points="45.5,-89 154.5,-89 "/>
<path fill="none" stroke="black" d="M154.5,-89C160.5,-89 166.5,-95 166.5,-101"/>
<polyline fill="none" stroke="black" points="166.5,-101 166.5,-189 "/>
<path fill="none" stroke="black" d="M166.5,-189C166.5,-195 160.5,-201 154.5,-201"/>
<polyline fill="none" stroke="black" points="154.5,-201 45.5,-201 "/>
<path fill="none" stroke="black" d="M45.5,-201C39.5,-201 33.5,-195 33.5,-189"/>
<polyline fill="none" stroke="black" points="33.5,-189 33.5,-101 "/>
<path fill="none" stroke="black" d="M33.5,-101C33.5,-95 39.5,-89 45.5,-89"/>
<text text-anchor="middle" x="100" y="-184.4" font-family="Times,serif" font-size="14.00">Authorization</text>
<polyline fill="none" stroke="black" points="33.5,-177 166.5,-177 "/>
<text text-anchor="start" x="41.5" y="-160.4" font-family="Times,serif" font-size="14.00">uid :integer</text>
<text text-anchor="start" x="41.5" y="-144.4" font-family="Times,serif" font-size="14.00">provider :string</text>
<text text-anchor="start" x="41.5" y="-128.4" font-family="Times,serif" font-size="14.00">token :string</text>
<text text-anchor="start" x="41.5" y="-112.4" font-family="Times,serif" font-size="14.00">created_at :datetime</text>
<text text-anchor="start" x="41.5" y="-96.4" font-family="Times,serif" font-size="14.00">updated_at :datetime</text>
</g>
<!-- College -->
<g id="node3" class="node"><title>College</title>
<polyline fill="none" stroke="black" points="582.5,-375 691.5,-375 "/>
<path fill="none" stroke="black" d="M691.5,-375C697.5,-375 703.5,-381 703.5,-387"/>
<polyline fill="none" stroke="black" points="703.5,-387 703.5,-475 "/>
<path fill="none" stroke="black" d="M703.5,-475C703.5,-481 697.5,-487 691.5,-487"/>
<polyline fill="none" stroke="black" points="691.5,-487 582.5,-487 "/>
<path fill="none" stroke="black" d="M582.5,-487C576.5,-487 570.5,-481 570.5,-475"/>
<polyline fill="none" stroke="black" points="570.5,-475 570.5,-387 "/>
<path fill="none" stroke="black" d="M570.5,-387C570.5,-381 576.5,-375 582.5,-375"/>
<text text-anchor="middle" x="637" y="-470.4" font-family="Times,serif" font-size="14.00">College</text>
<polyline fill="none" stroke="black" points="570.5,-463 703.5,-463 "/>
<text text-anchor="start" x="578.5" y="-446.4" font-family="Times,serif" font-size="14.00">name :string</text>
<text text-anchor="start" x="578.5" y="-430.4" font-family="Times,serif" font-size="14.00">state :string</text>
<text text-anchor="start" x="578.5" y="-414.4" font-family="Times,serif" font-size="14.00">created_at :datetime</text>
<text text-anchor="start" x="578.5" y="-398.4" font-family="Times,serif" font-size="14.00">updated_at :datetime</text>
<text text-anchor="start" x="578.5" y="-382.4" font-family="Times,serif" font-size="14.00">college_tag :string</text>
</g>
<!-- Course -->
<g id="node5" class="node"><title>Course</title>
<polyline fill="none" stroke="black" points="617,-1 823,-1 "/>
<path fill="none" stroke="black" d="M823,-1C829,-1 835,-7 835,-13"/>
<polyline fill="none" stroke="black" points="835,-13 835,-277 "/>
<path fill="none" stroke="black" d="M835,-277C835,-283 829,-289 823,-289"/>
<polyline fill="none" stroke="black" points="823,-289 617,-289 "/>
<path fill="none" stroke="black" d="M617,-289C611,-289 605,-283 605,-277"/>
<polyline fill="none" stroke="black" points="605,-277 605,-13 "/>
<path fill="none" stroke="black" d="M605,-13C605,-7 611,-1 617,-1"/>
<text text-anchor="middle" x="720" y="-272.4" font-family="Times,serif" font-size="14.00">Course</text>
<polyline fill="none" stroke="black" points="605,-265 835,-265 "/>
<text text-anchor="start" x="613" y="-248.4" font-family="Times,serif" font-size="14.00">course_number :string</text>
<text text-anchor="start" x="613" y="-232.4" font-family="Times,serif" font-size="14.00">section :string</text>
<text text-anchor="start" x="613" y="-216.4" font-family="Times,serif" font-size="14.00">title :string</text>
<text text-anchor="start" x="613" y="-200.4" font-family="Times,serif" font-size="14.00">reference_number :string</text>
<text text-anchor="start" x="613" y="-184.4" font-family="Times,serif" font-size="14.00">seats :integer</text>
<text text-anchor="start" x="613" y="-168.4" font-family="Times,serif" font-size="14.00">seats_left :integer</text>
<text text-anchor="start" x="613" y="-152.4" font-family="Times,serif" font-size="14.00">building :string</text>
<text text-anchor="start" x="613" y="-136.4" font-family="Times,serif" font-size="14.00">room :string</text>
<text text-anchor="start" x="613" y="-120.4" font-family="Times,serif" font-size="14.00">begin_time :time</text>
<text text-anchor="start" x="613" y="-104.4" font-family="Times,serif" font-size="14.00">end_time :time</text>
<text text-anchor="start" x="613" y="-88.4" font-family="Times,serif" font-size="14.00">days :string</text>
<text text-anchor="start" x="613" y="-72.4" font-family="Times,serif" font-size="14.00">created_at :datetime</text>
<text text-anchor="start" x="613" y="-56.4" font-family="Times,serif" font-size="14.00">updated_at :datetime</text>
<text text-anchor="start" x="613" y="-40.4" font-family="Times,serif" font-size="14.00">course_college_instructor_hash :string</text>
<text text-anchor="start" x="613" y="-24.4" font-family="Times,serif" font-size="14.00">semester :string</text>
<text text-anchor="start" x="613" y="-8.4" font-family="Times,serif" font-size="14.00">year :integer</text>
</g>
<!-- College&#45;&gt;Course -->
<g id="edge2" class="edge"><title>College&#45;&gt;Course</title>
<path fill="none" stroke="black" d="M655.357,-367.19C661.352,-346.674 668.295,-322.917 675.361,-298.742"/>
<ellipse fill="none" stroke="black" cx="654.224" cy="-371.066" rx="4.00001" ry="4.00001"/>
<polygon fill="black" stroke="black" points="675.373,-298.698 682.498,-290.362 676.776,-293.899 678.179,-289.1 678.179,-289.1 678.179,-289.1 676.776,-293.899 673.859,-287.837 675.373,-298.698 675.373,-298.698"/>
</g>
<!-- CollegeImporter -->
<g id="node4" class="node"><title>CollegeImporter</title>
<polygon fill="none" stroke="black" stroke-dasharray="1,5" points="1013,-449 905,-449 905,-413 1013,-413 1013,-449"/>
<text text-anchor="middle" x="959" y="-426.4" font-family="Times,serif" font-size="14.00">CollegeImporter</text>
</g>
<!-- Friend -->
<g id="node6" class="node"><title>Friend</title>
<polyline fill="none" stroke="black" points="196.5,-105 305.5,-105 "/>
<path fill="none" stroke="black" d="M305.5,-105C311.5,-105 317.5,-111 317.5,-117"/>
<polyline fill="none" stroke="black" points="317.5,-117 317.5,-173 "/>
<path fill="none" stroke="black" d="M317.5,-173C317.5,-179 311.5,-185 305.5,-185"/>
<polyline fill="none" stroke="black" points="305.5,-185 196.5,-185 "/>
<path fill="none" stroke="black" d="M196.5,-185C190.5,-185 184.5,-179 184.5,-173"/>
<polyline fill="none" stroke="black" points="184.5,-173 184.5,-117 "/>
<path fill="none" stroke="black" d="M184.5,-117C184.5,-111 190.5,-105 196.5,-105"/>
<text text-anchor="middle" x="251" y="-168.4" font-family="Times,serif" font-size="14.00">Friend</text>
<polyline fill="none" stroke="black" points="184.5,-161 317.5,-161 "/>
<text text-anchor="start" x="192.5" y="-144.4" font-family="Times,serif" font-size="14.00">created_at :datetime</text>
<text text-anchor="start" x="192.5" y="-128.4" font-family="Times,serif" font-size="14.00">updated_at :datetime</text>
<text text-anchor="start" x="192.5" y="-112.4" font-family="Times,serif" font-size="14.00">name :string</text>
</g>
<!-- Instructor -->
<g id="node7" class="node"><title>Instructor</title>
<polyline fill="none" stroke="black" points="733.5,-375 874.5,-375 "/>
<path fill="none" stroke="black" d="M874.5,-375C880.5,-375 886.5,-381 886.5,-387"/>
<polyline fill="none" stroke="black" points="886.5,-387 886.5,-475 "/>
<path fill="none" stroke="black" d="M886.5,-475C886.5,-481 880.5,-487 874.5,-487"/>
<polyline fill="none" stroke="black" points="874.5,-487 733.5,-487 "/>
<path fill="none" stroke="black" d="M733.5,-487C727.5,-487 721.5,-481 721.5,-475"/>
<polyline fill="none" stroke="black" points="721.5,-475 721.5,-387 "/>
<path fill="none" stroke="black" d="M721.5,-387C721.5,-381 727.5,-375 733.5,-375"/>
<text text-anchor="middle" x="804" y="-470.4" font-family="Times,serif" font-size="14.00">Instructor</text>
<polyline fill="none" stroke="black" points="721.5,-463 886.5,-463 "/>
<text text-anchor="start" x="729.5" y="-446.4" font-family="Times,serif" font-size="14.00">name :string</text>
<text text-anchor="start" x="729.5" y="-430.4" font-family="Times,serif" font-size="14.00">created_at :datetime</text>
<text text-anchor="start" x="729.5" y="-414.4" font-family="Times,serif" font-size="14.00">updated_at :datetime</text>
<text text-anchor="start" x="729.5" y="-398.4" font-family="Times,serif" font-size="14.00">last_name :string</text>
<text text-anchor="start" x="729.5" y="-382.4" font-family="Times,serif" font-size="14.00">college_name_hash :string</text>
</g>
<!-- Instructor&#45;&gt;Course -->
<g id="edge4" class="edge"><title>Instructor&#45;&gt;Course</title>
<path fill="none" stroke="black" d="M785.422,-367.19C779.354,-346.674 772.328,-322.917 765.177,-298.742"/>
<ellipse fill="none" stroke="black" cx="786.57" cy="-371.069" rx="4.00001" ry="4.00001"/>
<polygon fill="black" stroke="black" points="765.162,-298.689 766.64,-287.823 763.743,-293.894 762.325,-289.1 762.325,-289.1 762.325,-289.1 763.743,-293.894 758.01,-290.376 765.162,-298.689 765.162,-298.689"/>
</g>
<!-- PendingInvite -->
<g id="node8" class="node"><title>PendingInvite</title>
<polyline fill="none" stroke="black" points="1043.5,-391 1152.5,-391 "/>
<path fill="none" stroke="black" d="M1152.5,-391C1158.5,-391 1164.5,-397 1164.5,-403"/>
<polyline fill="none" stroke="black" points="1164.5,-403 1164.5,-459 "/>
<path fill="none" stroke="black" d="M1164.5,-459C1164.5,-465 1158.5,-471 1152.5,-471"/>
<polyline fill="none" stroke="black" points="1152.5,-471 1043.5,-471 "/>
<path fill="none" stroke="black" d="M1043.5,-471C1037.5,-471 1031.5,-465 1031.5,-459"/>
<polyline fill="none" stroke="black" points="1031.5,-459 1031.5,-403 "/>
<path fill="none" stroke="black" d="M1031.5,-403C1031.5,-397 1037.5,-391 1043.5,-391"/>
<text text-anchor="middle" x="1098" y="-454.4" font-family="Times,serif" font-size="14.00">PendingInvite</text>
<polyline fill="none" stroke="black" points="1031.5,-447 1164.5,-447 "/>
<text text-anchor="start" x="1039.5" y="-430.4" font-family="Times,serif" font-size="14.00">uid :integer</text>
<text text-anchor="start" x="1039.5" y="-414.4" font-family="Times,serif" font-size="14.00">created_at :datetime</text>
<text text-anchor="start" x="1039.5" y="-398.4" font-family="Times,serif" font-size="14.00">updated_at :datetime</text>
</g>
<!-- Preferences -->
<g id="node9" class="node"><title>Preferences</title>
<polyline fill="none" stroke="black" points="1194.5,-375 1303.5,-375 "/>
<path fill="none" stroke="black" d="M1303.5,-375C1309.5,-375 1315.5,-381 1315.5,-387"/>
<polyline fill="none" stroke="black" points="1315.5,-387 1315.5,-475 "/>
<path fill="none" stroke="black" d="M1315.5,-475C1315.5,-481 1309.5,-487 1303.5,-487"/>
<polyline fill="none" stroke="black" points="1303.5,-487 1194.5,-487 "/>
<path fill="none" stroke="black" d="M1194.5,-487C1188.5,-487 1182.5,-481 1182.5,-475"/>
<polyline fill="none" stroke="black" points="1182.5,-475 1182.5,-387 "/>
<path fill="none" stroke="black" d="M1182.5,-387C1182.5,-381 1188.5,-375 1194.5,-375"/>
<text text-anchor="middle" x="1249" y="-470.4" font-family="Times,serif" font-size="14.00">Preferences</text>
<polyline fill="none" stroke="black" points="1182.5,-463 1315.5,-463 "/>
<text text-anchor="start" x="1190.5" y="-446.4" font-family="Times,serif" font-size="14.00">class_time :string</text>
<text text-anchor="start" x="1190.5" y="-430.4" font-family="Times,serif" font-size="14.00">lunch_time :time</text>
<text text-anchor="start" x="1190.5" y="-414.4" font-family="Times,serif" font-size="14.00">created_at :datetime</text>
<text text-anchor="start" x="1190.5" y="-398.4" font-family="Times,serif" font-size="14.00">updated_at :datetime</text>
<text text-anchor="start" x="1190.5" y="-382.4" font-family="Times,serif" font-size="14.00">workdays :string</text>
</g>
<!-- Scheduler -->
<g id="node10" class="node"><title>Scheduler</title>
<polygon fill="none" stroke="black" points="1334,-407 1334,-455 1406,-455 1406,-407 1334,-407"/>
<text text-anchor="middle" x="1370" y="-438.4" font-family="Times,serif" font-size="14.00">Scheduler</text>
<polyline fill="none" stroke="black" points="1334,-431 1406,-431 "/>
<text text-anchor="middle" x="1370" y="-414.4" font-family="Times,serif" font-size="14.00"> </text>
</g>
<!-- User -->
<g id="node11" class="node"><title>User</title>
<polyline fill="none" stroke="black" points="236.5,-327 417.5,-327 "/>
<path fill="none" stroke="black" d="M417.5,-327C423.5,-327 429.5,-333 429.5,-339"/>
<polyline fill="none" stroke="black" points="429.5,-339 429.5,-523 "/>
<path fill="none" stroke="black" d="M429.5,-523C429.5,-529 423.5,-535 417.5,-535"/>
<polyline fill="none" stroke="black" points="417.5,-535 236.5,-535 "/>
<path fill="none" stroke="black" d="M236.5,-535C230.5,-535 224.5,-529 224.5,-523"/>
<polyline fill="none" stroke="black" points="224.5,-523 224.5,-339 "/>
<path fill="none" stroke="black" d="M224.5,-339C224.5,-333 230.5,-327 236.5,-327"/>
<text text-anchor="middle" x="327" y="-518.4" font-family="Times,serif" font-size="14.00">User</text>
<polyline fill="none" stroke="black" points="224.5,-511 429.5,-511 "/>
<text text-anchor="start" x="232.5" y="-494.4" font-family="Times,serif" font-size="14.00">email :string</text>
<text text-anchor="start" x="232.5" y="-478.4" font-family="Times,serif" font-size="14.00">encrypted_password :string</text>
<text text-anchor="start" x="232.5" y="-462.4" font-family="Times,serif" font-size="14.00">reset_password_token :string</text>
<text text-anchor="start" x="232.5" y="-446.4" font-family="Times,serif" font-size="14.00">reset_password_sent_at :datetime</text>
<text text-anchor="start" x="232.5" y="-430.4" font-family="Times,serif" font-size="14.00">remember_created_at :datetime</text>
<text text-anchor="start" x="232.5" y="-414.4" font-family="Times,serif" font-size="14.00">current_sign_in_at :datetime</text>
<text text-anchor="start" x="232.5" y="-398.4" font-family="Times,serif" font-size="14.00">last_sign_in_at :datetime</text>
<text text-anchor="start" x="232.5" y="-382.4" font-family="Times,serif" font-size="14.00">current_sign_in_ip :string</text>
<text text-anchor="start" x="232.5" y="-366.4" font-family="Times,serif" font-size="14.00">last_sign_in_ip :string</text>
<text text-anchor="start" x="232.5" y="-350.4" font-family="Times,serif" font-size="14.00">created_at :datetime</text>
<text text-anchor="start" x="232.5" y="-334.4" font-family="Times,serif" font-size="14.00">updated_at :datetime</text>
</g>
<!-- User&#45;&gt;Authorization -->
<g id="edge6" class="edge"><title>User&#45;&gt;Authorization</title>
<path fill="none" stroke="black" d="M218.145,-328.877C217.092,-327.913 216.043,-326.954 215,-326 197.347,-309.862 189.647,-308.908 175,-290 156.239,-265.781 139.89,-236.171 127.286,-210.113"/>
<ellipse fill="none" stroke="black" cx="221.271" cy="-331.742" rx="4.00002" ry="4.00002"/>
<polygon fill="black" stroke="black" points="127.276,-210.092 127.051,-199.128 125.131,-205.575 122.986,-201.059 122.986,-201.059 122.986,-201.059 125.131,-205.575 118.921,-202.989 127.276,-210.092 127.276,-210.092"/>
</g>
<!-- User&#45;&gt;Friend -->
<g id="edge8" class="edge"><title>User&#45;&gt;Friend</title>
<path fill="none" stroke="black" d="M297.252,-318.836C285.762,-275.901 273.215,-229.015 264.092,-194.922"/>
<ellipse fill="none" stroke="black" cx="298.313" cy="-322.802" rx="4.00001" ry="4.00001"/>
<polygon fill="black" stroke="black" points="264.08,-194.876 265.842,-184.053 262.787,-190.046 261.495,-185.216 261.495,-185.216 261.495,-185.216 262.787,-190.046 257.147,-186.38 264.08,-194.876 264.08,-194.876"/>
</g>
<!-- UserCourse -->
<g id="node12" class="node"><title>UserCourse</title>
<polyline fill="none" stroke="black" points="347.5,-105 456.5,-105 "/>
<path fill="none" stroke="black" d="M456.5,-105C462.5,-105 468.5,-111 468.5,-117"/>
<polyline fill="none" stroke="black" points="468.5,-117 468.5,-173 "/>
<path fill="none" stroke="black" d="M468.5,-173C468.5,-179 462.5,-185 456.5,-185"/>
<polyline fill="none" stroke="black" points="456.5,-185 347.5,-185 "/>
<path fill="none" stroke="black" d="M347.5,-185C341.5,-185 335.5,-179 335.5,-173"/>
<polyline fill="none" stroke="black" points="335.5,-173 335.5,-117 "/>
<path fill="none" stroke="black" d="M335.5,-117C335.5,-111 341.5,-105 347.5,-105"/>
<text text-anchor="middle" x="402" y="-168.4" font-family="Times,serif" font-size="14.00">UserCourse</text>
<polyline fill="none" stroke="black" points="335.5,-161 468.5,-161 "/>
<text text-anchor="start" x="343.5" y="-144.4" font-family="Times,serif" font-size="14.00">tag :string</text>
<text text-anchor="start" x="343.5" y="-128.4" font-family="Times,serif" font-size="14.00">created_at :datetime</text>
<text text-anchor="start" x="343.5" y="-112.4" font-family="Times,serif" font-size="14.00">updated_at :datetime</text>
</g>
<!-- User&#45;&gt;UserCourse -->
<g id="edge12" class="edge"><title>User&#45;&gt;UserCourse</title>
<path fill="none" stroke="black" d="M356.357,-318.836C367.695,-275.901 380.077,-229.015 389.08,-194.922"/>
<ellipse fill="none" stroke="black" cx="355.31" cy="-322.799" rx="4.00001" ry="4.00001"/>
<polygon fill="black" stroke="black" points="389.09,-194.885 395.994,-186.365 390.367,-190.051 391.644,-185.216 391.644,-185.216 391.644,-185.216 390.367,-190.051 387.293,-184.067 389.09,-194.885 389.09,-194.885"/>
</g>
<!-- Preference -->
<g id="node18" class="node"><title>Preference</title>
<ellipse fill="none" stroke="black" cx="537" cy="-145" rx="49.9686" ry="18"/>
<text text-anchor="middle" x="537" y="-140.4" font-family="Times,serif" font-size="14.00">Preference</text>
</g>
<!-- User&#45;&gt;Preference -->
<g id="edge10" class="edge"><title>User&#45;&gt;Preference</title>
<path fill="none" stroke="black" d="M435.688,-339.31C450.717,-323.832 465.066,-307.173 477,-290 503.277,-252.188 521.115,-201.087 530.134,-171.026"/>
<ellipse fill="none" stroke="black" cx="432.48" cy="-342.562" rx="4.00002" ry="4.00002"/>
<ellipse fill="black" stroke="black" cx="531.32" cy="-166.972" rx="4.00001" ry="4.00001"/>
</g>
</g>
</svg>
